<?xml version="1.0" standalone="no"?>
<!DOCTYPE svg PUBLIC "-//W3C//DTD SVG 1.1//EN" "http://www.w3.org/Graphics/SVG/1.1/DTD/svg11.dtd" >
<svg>
<metadata>
Created by FontForge 20090914 at Tue Mar  1 19:25:19 2011
 By apache
Copyright (c) 2007 by Jos Buivenga. All rights reserved.
</metadata>
<defs>
<font id="FontinSans-Italic" horiz-adv-x="470" >
  <font-face 
    font-family="Fontin Sans Rg"
    font-weight="400"
    font-style="italic"
    font-stretch="normal"
    units-per-em="1000"
    panose-1="2 0 0 0 0 0 0 0 0 0"
    ascent="756"
    descent="-244"
    x-height="492"
    cap-height="658"
    bbox="-137 -254 1109 879"
    underline-thickness="50"
    underline-position="-50"
    unicode-range="U+0020-U+FB04"
  />
<missing-glyph horiz-adv-x="500" 
 />
    <glyph glyph-name="fi" unicode="fi" horiz-adv-x="563" 
d="M210 492h217l99 11l-84 -428l-4 -75h-94l78 400l1 24h-223l-65 -435c-20 -136 -94 -230 -206 -231l-23 69c78 0 129 58 145 162l65 435h-63l11 68h62l10 63c22 139 139 199 246 199c124 0 174 -64 174 -64l-49 -79s-52 70 -129 70c-101 0 -147 -57 -157 -118z" />
    <glyph glyph-name="fl" unicode="fl" horiz-adv-x="556" 
d="M306 424h-106l-65 -435c-20 -136 -94 -230 -206 -231l-23 69c78 0 129 58 145 162l65 435h-63l11 68h62l10 63c22 139 136 199 243 199c47 0 107 -25 186 -46l-125 -633l-5 -75h-93l127 651s-52 30 -94 30c-101 0 -147 -57 -156 -118l-11 -71h140z" />
    <glyph glyph-name="ffi" unicode="ffi" horiz-adv-x="865" 
d="M512 492h217l99 11l-84 -428l-4 -75h-94l78 400l1 24h-223l-65 -435c-20 -136 -94 -230 -206 -231l-23 69c78 0 129 58 145 162l65 435h-218l-65 -435c-20 -136 -94 -230 -206 -231l-23 69c78 0 129 58 145 162l65 435h-63l11 68h62l10 63c22 139 139 199 246 199
c78 0 126 -25 152 -44c44 30 98 44 150 44c124 0 174 -64 174 -64l-49 -79s-52 70 -129 70c-101 0 -147 -57 -157 -118zM210 492h218l10 63c5 35 17 65 33 91c-22 18 -54 35 -93 35c-101 0 -147 -57 -157 -118z" />
    <glyph glyph-name="ffl" unicode="ffl" horiz-adv-x="858" 
d="M608 424h-106l-65 -435c-20 -136 -94 -230 -206 -231l-23 69c78 0 129 58 145 162l65 435h-218l-65 -435c-20 -136 -94 -230 -206 -231l-23 69c78 0 129 58 145 162l65 435h-63l11 68h62l10 63c22 139 139 199 246 199c77 0 126 -25 151 -44c44 30 96 44 148 44
c47 0 107 -25 186 -46l-125 -633l-5 -75h-93l127 651s-52 30 -94 30c-101 0 -147 -57 -156 -118l-11 -71h140zM210 492h218l10 63c5 35 17 65 33 91c-23 18 -54 35 -93 35c-101 0 -147 -57 -157 -118z" />
    <glyph glyph-name="fj" unicode="fj" horiz-adv-x="567" 
d="M210 492h219l99 11l-100 -514c-26 -136 -95 -231 -210 -232l-21 75c79 0 127 53 147 157l80 411s0 11 1 24h-225l-65 -435c-20 -136 -94 -230 -206 -231l-23 69c78 0 129 58 145 162l65 435h-63l11 68h62l10 63c22 139 139 199 246 199c124 0 174 -64 174 -64l-49 -79
s-52 70 -129 70c-101 0 -147 -57 -157 -118z" />
    <glyph glyph-name="ff" unicode="ff" horiz-adv-x="604" 
d="M502 424l-65 -435c-20 -136 -94 -230 -206 -231l-23 69c78 0 129 58 145 162l65 435h-218l-65 -435c-20 -136 -94 -230 -206 -231l-23 69c78 0 129 58 145 162l65 435h-63l11 68h62l10 63c22 139 139 199 246 199c62 0 105 -16 133 -32c30 23 66 32 101 32
c38 0 77 -13 109 -34l-45 -69c-20 17 -43 24 -67 24c-39 0 -78 -31 -87 -92l-14 -91h140l-41 -68h-109zM210 492h218l11 73c5 34 13 63 24 87c-22 16 -50 29 -85 29c-101 0 -147 -57 -157 -118z" />
    <glyph glyph-name=".notdef" horiz-adv-x="500" 
 />
    <glyph glyph-name=".null" horiz-adv-x="0" 
 />
    <glyph glyph-name="CR" horiz-adv-x="250" 
 />
    <glyph glyph-name="space" unicode=" " horiz-adv-x="250" 
 />
    <glyph glyph-name="E" unicode="E" horiz-adv-x="497" 
d="M50 0l110 566l4 92h323l-13 -72h-220l-42 -214h203l-34 -72h-183l-43 -228h242l-35 -72h-312z" />
    <glyph glyph-name="F" unicode="F" horiz-adv-x="477" 
d="M160 566l4 92h323l-13 -72h-220l-42 -214h203l-34 -72h-183l-44 -225l-4 -75h-100z" />
    <glyph glyph-name="G" unicode="G" horiz-adv-x="650" 
d="M613 605l-55 -63s-59 54 -149 54c-138 0 -257 -149 -257 -332c0 -101 54 -202 176 -202c32 0 74 11 106 21l33 168l-5 74h108l-57 -305c-38 -4 -132 -33 -207 -33c-150 0 -247 115 -247 267c0 234 143 417 358 417c126 0 196 -66 196 -66z" />
    <glyph glyph-name="H" unicode="H" horiz-adv-x="720" 
d="M692 658l-113 -583l-4 -75h-100l58 300h-335l-44 -225l-4 -75h-100l110 566l4 92h103l-54 -278h335l37 186l4 92h103z" />
    <glyph glyph-name="I" unicode="I" horiz-adv-x="295" 
d="M267 658l-113 -583l-4 -75h-100l110 566l4 92h103z" />
    <glyph glyph-name="J" unicode="J" horiz-adv-x="317" 
d="M278 658l-121 -620c-24 -123 -105 -237 -241 -237c-16 0 -34 2 -53 6l22 83c12 -4 25 -6 39 -6c69 0 126 69 143 154l103 528l5 92h103z" />
    <glyph glyph-name="K" unicode="K" horiz-adv-x="559" 
d="M500 0h-105l-190 333l-51 -258l-4 -75h-100l110 566l5 92h103l-61 -313l237 248l42 65h134l-317 -317z" />
    <glyph glyph-name="L" unicode="L" horiz-adv-x="426" 
d="M50 0l110 566l4 92h103l-112 -582h254l-35 -76h-324z" />
    <glyph glyph-name="M" unicode="M" horiz-adv-x="867" 
d="M402 74l-161 319l-20 66l-75 -384l-4 -75h-92l110 566l4 92h59l207 -426l341 426h68l-113 -583l-4 -75h-100l90 463l-49 -70z" />
    <glyph glyph-name="N" unicode="N" horiz-adv-x="734" 
d="M714 658l-112 -583l-8 -75h-37l-299 423l-34 62l-77 -410l-4 -75h-93l109 566l-9 92h66l290 -417l33 -67l75 392l4 92h96z" />
    <glyph glyph-name="O" unicode="O" horiz-adv-x="649" 
d="M377 597c-99 0 -236 -118 -236 -342c0 -114 60 -197 150 -197c137 0 237 184 237 337c0 113 -54 202 -151 202zM48 243c0 225 125 427 339 427c179 0 234 -157 234 -256c0 -248 -144 -427 -343 -427c-151 0 -230 119 -230 256z" />
    <glyph glyph-name="P" unicode="P" horiz-adv-x="515" 
d="M155 658h181c108 0 179 -55 179 -149c0 -150 -106 -263 -280 -263h-57l-33 -171l-4 -75h-100l110 566zM245 584l-52 -264h56c112 0 170 76 170 178c0 60 -37 86 -104 86h-70z" />
    <glyph glyph-name="Q" unicode="Q" horiz-adv-x="667" 
d="M53 243c0 225 125 427 339 427c179 0 234 -157 234 -256c0 -239 -133 -413 -320 -426c67 -33 136 -93 223 -93c43 0 107 18 131 44v-87c-27 -26 -90 -38 -130 -38c-72 0 -165 62 -269 117l-20 59v1c-124 19 -188 128 -188 252zM382 597c-99 0 -235 -118 -235 -342
c0 -114 59 -197 149 -197c137 0 237 184 237 337c0 113 -54 202 -151 202z" />
    <glyph glyph-name="R" unicode="R" horiz-adv-x="544" 
d="M150 658h186c99 0 174 -64 174 -168c0 -111 -71 -200 -178 -227l167 -263h-110l-145 247l-71 -1l-33 -171l-4 -75h-100l110 566zM240 584l-52 -264h56c110 0 170 69 170 166c0 67 -32 98 -104 98h-70z" />
    <glyph glyph-name="S" unicode="S" horiz-adv-x="452" 
d="M448 641l-40 -73s-59 29 -119 29c-62 0 -112 -41 -112 -96c0 -126 220 -155 220 -317c0 -118 -99 -197 -216 -197c-112 0 -169 44 -169 44l18 76c-2 -1 72 -46 145 -46c53 0 128 31 128 107c0 128 -221 158 -221 314c0 113 107 188 213 188c90 0 153 -29 153 -29z" />
    <glyph glyph-name="T" unicode="T" horiz-adv-x="495" 
d="M55 582l15 76h479l-15 -76h-189l-98 -507l-4 -75h-100l112 582h-200z" />
    <glyph glyph-name="U" unicode="U" horiz-adv-x="663" 
d="M560 658h94l-77 -395c-31 -158 -125 -276 -277 -276c-227 0 -232 171 -206 316l48 263l5 92h104l-66 -358c-18 -94 -30 -240 121 -240c99 0 168 91 188 192l61 314z" />
    <glyph glyph-name="V" unicode="V" horiz-adv-x="582" 
d="M641 658l-389 -671l-58 13l-93 548l-36 110h113l71 -440l5 -84l42 84l252 440h93z" />
    <glyph glyph-name="W" unicode="W" horiz-adv-x="882" 
d="M950 658l-362 -671l-60 13l-62 360l-216 -373l-53 13l-93 548l-36 110h113l71 -440l5 -84l42 84l148 258l-12 72l-36 110h113l71 -440l5 -84l42 84l227 440h93z" />
    <glyph glyph-name="X" unicode="X" horiz-adv-x="506" 
d="M571 657l-246 -325l123 -332h-100l-81 224l-11 36l-26 -41l-163 -219h-97l257 338l-90 249l-49 71h120l77 -210l11 -34l23 36l154 207h98z" />
    <glyph glyph-name="Y" unicode="Y" horiz-adv-x="508" 
d="M294 297l-43 -222l-4 -75h-100l56 290l-97 297l-39 71h109l82 -247l7 -40l27 42l176 245h95z" />
    <glyph glyph-name="Z" unicode="Z" horiz-adv-x="544" 
d="M-25 0v25l408 502l52 54h-339l36 77h452v-25l-409 -503l-51 -54h374l-14 -76h-509z" />
    <glyph glyph-name="bracketleft" unicode="[" horiz-adv-x="288" 
d="M338 724l-12 -62h-81l-130 -668h81l-13 -63h-160l154 793h161z" />
    <glyph glyph-name="backslash" unicode="\" horiz-adv-x="356" 
d="M288 -244l-283 901h76l275 -901h-68z" />
    <glyph glyph-name="bracketright" unicode="]" horiz-adv-x="278" 
d="M122 662l12 62h161l-155 -793h-160l13 63h80l130 668h-81z" />
    <glyph glyph-name="asciicircum" unicode="^" horiz-adv-x="624" 
d="M551 320h-70l-170 307l-170 -307h-70l212 388h56s198 -364 212 -388z" />
    <glyph glyph-name="underscore" unicode="_" horiz-adv-x="450" 
d="M418 -75l-30 -60h-446v60h476z" />
    <glyph glyph-name="grave" unicode="`" horiz-adv-x="338" 
d="M43 724h110l111 -143l-57 -20z" />
    <glyph glyph-name="a" unicode="a" horiz-adv-x="507" 
d="M318 161l53 275s-50 8 -65 8c-86 0 -180 -131 -180 -283c0 -42 15 -99 58 -99c47 0 133 99 134 99zM308 62l2 21s-71 -96 -155 -96c-61 0 -117 54 -117 159c0 179 105 359 261 359c71 0 127 -11 167 -13l-65 -338c-14 -72 -12 -110 28 -154l-89 -13c-23 18 -32 47 -32 75
z" />
    <glyph glyph-name="b" unicode="b" horiz-adv-x="521" 
d="M174 745l101 11l-68 -340s72 89 162 89c61 0 113 -54 113 -159c0 -174 -86 -359 -260 -359c-86 0 -135 42 -168 56l117 610zM192 331l-48 -255s33 -24 84 -24c97 0 166 147 166 280c0 70 -32 98 -63 98c-58 0 -139 -99 -139 -99z" />
    <glyph glyph-name="c" unicode="c" horiz-adv-x="445" 
d="M432 483l-32 -72c2 1 -65 27 -108 27c-107 0 -166 -123 -166 -222c0 -80 31 -155 119 -155c86 0 147 79 147 79v-87s-55 -66 -161 -66c-133 0 -193 96 -193 206c0 199 117 314 253 314c67 0 141 -24 141 -24z" />
    <glyph glyph-name="d" unicode="d" horiz-adv-x="519" 
d="M333 164l53 273s-47 6 -80 6c-117 0 -178 -178 -178 -280c0 -70 31 -102 61 -102c55 0 142 104 144 103zM533 756l-117 -602c-14 -72 -14 -110 26 -154l-89 -13c-23 18 -32 47 -32 75l3 24s-82 -99 -166 -99c-61 0 -118 57 -118 162c0 179 94 356 273 356
c28 0 86 -6 86 -6l33 154v92z" />
    <glyph glyph-name="e" unicode="e" horiz-adv-x="449" 
d="M423 398c0 -132 -148 -189 -291 -189v-10c0 -72 33 -135 116 -135c82 0 150 76 150 76v-87s-51 -66 -171 -66c-123 0 -183 96 -183 206c0 163 99 314 249 314c88 0 130 -47 130 -109zM280 442c-77 0 -126 -86 -142 -175c25 1 194 14 194 121c0 23 -9 54 -52 54z" />
    <glyph glyph-name="f" unicode="f" horiz-adv-x="302" 
d="M200 424l-65 -435c-20 -136 -94 -230 -206 -231l-23 69c78 0 129 58 145 162l65 435h-63l11 68h62l11 73c22 146 100 189 177 189c38 0 77 -13 109 -34l-45 -69c-20 17 -43 24 -67 24c-39 0 -78 -31 -87 -92l-14 -91h140l-41 -68h-109z" />
    <glyph glyph-name="g" unicode="g" horiz-adv-x="490" 
d="M313 505c81 0 144 -13 144 -13l-63 -322c-4 -21 -9 -59 -9 -97c0 -63 4 -118 4 -140c0 -109 -107 -176 -222 -176c-161 0 -211 106 -211 106l65 42s48 -84 154 -84c71 0 131 46 131 121c0 41 -10 93 -5 135c-9 -17 -67 -90 -148 -90c-61 0 -108 57 -108 162
c0 179 84 356 268 356zM304 444c-92 0 -171 -148 -171 -281c0 -70 27 -98 58 -98c42 0 118 90 118 94l54 279c-2 0 -29 6 -59 6z" />
    <glyph glyph-name="h" unicode="h" horiz-adv-x="537" 
d="M421 0h-93l61 325c6 30 18 99 -33 99c-69 0 -167 -93 -167 -93l-49 -256l-6 -75h-92l126 648l3 96l102 11l-61 -300l-15 -49s101 100 192 100c87 0 107 -69 92 -148l-55 -285z" />
    <glyph glyph-name="i" unicode="i" horiz-adv-x="261" 
d="M141 641c0 28 23 52 52 52c27 0 51 -24 51 -52s-24 -54 -51 -54c-29 0 -52 26 -52 54zM224 503l-84 -428l-4 -75h-94l78 400l5 92z" />
    <glyph glyph-name="j" unicode="j" horiz-adv-x="265" 
d="M149 641c0 28 23 52 52 52c27 0 51 -24 51 -52s-24 -54 -51 -54c-29 0 -52 26 -52 54zM226 503l-100 -514c-26 -136 -95 -231 -210 -232l-21 75c79 0 127 53 147 157l80 411s4 64 5 92z" />
    <glyph glyph-name="k" unicode="k" horiz-adv-x="480" 
d="M451 11l-92 -21l-183 280l-37 -195l-5 -75h-94l127 652v92l104 11l-91 -463l124 71c36 21 60 40 60 59s-30 32 -30 32l76 49s46 -21 46 -72c0 -48 -24 -80 -84 -111l-99 -51z" />
    <glyph glyph-name="l" unicode="l" horiz-adv-x="254" 
d="M271 755l-133 -680l-5 -75h-93l127 652l5 92z" />
    <glyph glyph-name="m" unicode="m" horiz-adv-x="829" 
d="M421 0h-93l61 325c6 30 18 99 -33 99c-69 0 -167 -93 -167 -93l-49 -256l-6 -75h-92l78 400l-7 82l99 21l-12 -97s98 100 189 100c69 0 95 -44 96 -102c20 19 93 102 194 102c87 0 105 -69 92 -148l-55 -285l-5 -73h-93l61 325c6 30 18 99 -33 99
c-72 0 -152 -80 -171 -97l-49 -254z" />
    <glyph glyph-name="n" unicode="n" horiz-adv-x="541" 
d="M421 0h-93l61 325c6 30 18 99 -33 99c-69 0 -167 -93 -167 -93l-49 -256l-6 -75h-92l78 400l-7 82l99 21l-15 -97s101 100 192 100c87 0 105 -69 92 -148l-55 -285z" />
    <glyph glyph-name="o" unicode="o" horiz-adv-x="503" 
d="M220 54c67 0 155 82 155 244c0 77 -38 143 -97 143c-87 0 -152 -133 -152 -243c0 -82 29 -144 94 -144zM463 312c0 -170 -90 -325 -263 -325c-129 0 -162 118 -162 193c0 189 98 327 265 327c88 0 160 -72 160 -195z" />
    <glyph glyph-name="p" unicode="p" horiz-adv-x="522" 
d="M213 503l-13 -96s83 98 169 98c58 0 110 -52 110 -159c0 -178 -84 -359 -261 -359c-35 0 -90 15 -91 18l-33 -170l-5 -75h-93l125 640l-7 82zM190 328l-50 -257s34 -16 78 -16c106 0 173 139 173 277c0 67 -29 93 -59 93c-50 0 -142 -97 -142 -97z" />
    <glyph glyph-name="q" unicode="q" horiz-adv-x="523" 
d="M340 164l53 272c-2 0 -63 6 -104 6c-80 0 -155 -146 -155 -279c0 -70 32 -101 63 -101c55 0 143 102 143 102zM364 -141l-5 -99h-98l62 317c-15 -16 -80 -90 -158 -90c-61 0 -119 57 -119 162c0 179 90 356 274 356c51 0 128 -12 167 -13z" />
    <glyph glyph-name="r" unicode="r" horiz-adv-x="391" 
d="M426 489l-41 -82s-37 12 -57 12c-68 0 -146 -133 -160 -205l-27 -139l-5 -75h-94l78 400l-7 83l99 20l-20 -124c18 29 74 128 163 128c32 0 71 -18 71 -18z" />
    <glyph glyph-name="s" unicode="s" horiz-adv-x="395" 
d="M71 364c0 89 90 143 177 143c67 0 131 -24 131 -24l-32 -72s-49 31 -110 31c-35 0 -83 -22 -83 -64c0 -100 186 -96 186 -243c0 -98 -89 -148 -173 -148c-85 0 -137 43 -137 43v84s67 -58 134 -58c38 0 92 19 92 69c0 94 -185 89 -185 239z" />
    <glyph glyph-name="t" unicode="t" horiz-adv-x="373" 
d="M252 593l-29 -101h153l-44 -68h-123c-58 -301 -58 -308 -58 -314c0 -31 18 -43 44 -43c37 0 87 31 118 56v-85c-49 -34 -97 -51 -143 -51c-55 0 -105 31 -105 108c0 13 2 28 60 329h-60l14 68h60c5 30 12 60 17 90z" />
    <glyph glyph-name="u" unicode="u" horiz-adv-x="546" 
d="M501 492l-65 -338c-14 -72 -14 -110 26 -154l-89 -13c-23 18 -32 47 -32 75l3 25s-99 -101 -190 -101c-87 0 -105 69 -92 148l55 285l5 73h93l-61 -325c-6 -30 -18 -99 33 -99c69 0 167 93 167 93l49 256l6 75h92z" />
    <glyph glyph-name="v" unicode="v" horiz-adv-x="449" 
d="M206 -13l-71 13l-58 409l-28 83l98 13l50 -333l3 -73l37 73l101 165c19 32 26 58 26 80c0 38 -21 76 -21 75l91 13s17 -40 17 -68c0 -43 -19 -90 -46 -132z" />
    <glyph glyph-name="w" unicode="w" horiz-adv-x="740" 
d="M206 -13l-71 13l-58 409l-28 83l98 13l50 -333l3 -73l37 73l116 193c9 15 13 31 13 46c0 44 -30 81 -30 81l89 13s18 -26 24 -65l41 -268l3 -73l37 73l111 186c30 51 15 99 -13 134l89 13s25 -34 25 -83c0 -22 -6 -51 -23 -78l-220 -357l-71 13l-40 281z" />
    <glyph glyph-name="x" unicode="x" horiz-adv-x="469" 
d="M-24 0l212 250l-76 171l-48 71l99 13l75 -172l9 -24l10 16l75 81c9 10 18 28 18 49c0 12 -3 25 -10 37l89 13c5 -12 7 -25 7 -38c0 -32 -14 -67 -45 -100l-113 -120l111 -247h-93l-70 159l-8 23l-17 -23l-132 -159h-93z" />
    <glyph glyph-name="y" unicode="y" horiz-adv-x="450" 
d="M-104 -152c15 -6 31 -10 49 -10c50 0 101 29 150 101l44 65l-8 21l-54 384l-28 83l98 13l50 -345l1 -72l33 69l107 179c41 69 24 121 5 156l91 13c34 -74 10 -137 -32 -205l-244 -394c-61 -98 -146 -149 -214 -149c-17 0 -34 4 -50 11z" />
    <glyph glyph-name="z" unicode="z" horiz-adv-x="467" 
d="M-2 0v19l284 364l39 41h-252l33 68h353v-19l-283 -364l-39 -41h297l-13 -68h-419z" />
    <glyph glyph-name="braceleft" unicode="{" horiz-adv-x="301" 
d="M40 273l10 52c73 0 90 65 93 80l39 201c20 102 100 149 190 149l-12 -62c-33 0 -83 -10 -98 -90l-38 -197c-13 -65 -67 -107 -67 -107c32 -32 29 -78 21 -120l-41 -269c-9 -49 7 -89 64 -90l-12 -62c-89 2 -151 52 -132 149l44 274c9 46 -3 89 -61 92z" />
    <glyph glyph-name="bar" unicode="|" horiz-adv-x="227" 
d="M149 756v-1010h-71v1010h71z" />
    <glyph glyph-name="braceright" unicode="}" horiz-adv-x="301" 
d="M287 325l-10 -52c-73 0 -91 -65 -94 -80l-55 -286c-20 -102 -100 -149 -189 -149l12 62c33 0 82 10 97 90l55 282c13 65 67 107 67 107s-38 42 -25 107l38 197c15 80 -31 90 -64 90l12 62c90 0 150 -47 130 -149l-39 -201c-3 -15 -8 -80 65 -80z" />
    <glyph glyph-name="A" unicode="A" horiz-adv-x="549" 
d="M-62 0l381 659l63 12l95 -561l28 -110h-101l-28 172h-249l-98 -172h-91zM298 474l-129 -226h194l-39 226l-4 45z" />
    <glyph glyph-name="D" unicode="D" horiz-adv-x="658" 
d="M164 658h246c123 0 210 -105 210 -255c0 -213 -139 -403 -357 -403h-213l110 566zM378 586h-125l-99 -514h122c130 0 250 147 250 319c0 93 -53 195 -148 195z" />
    <glyph glyph-name="onehalf" unicode="&#xbd;" horiz-adv-x="666" 
d="M546 571l-330 -477h-63l342 497zM48 284l8 47h62l47 265l-63 -21l-9 45l157 53l-62 -342h74l-13 -47h-201zM596 -59h-229v29l13 12c42 38 176 162 176 245c0 25 -11 47 -39 47c-34 0 -79 -20 -88 -23l-13 50s59 23 109 23c61 0 108 -32 108 -92
c0 -101 -164 -236 -164 -236h143z" />
    <glyph glyph-name="onequarter" unicode="&#xbc;" horiz-adv-x="666" 
d="M311 71l225 262l61 -20l-44 -223h70l-23 -54h-57l-9 -44l-4 -50h-80l19 94h-158v35zM480 90l26 142l-122 -142h96zM556 571l-330 -477h-63l342 497zM48 286l8 47h62l47 265l-63 -21l-9 45l157 53l-62 -342h74l-13 -47h-201z" />
    <glyph glyph-name="onesuperior" unicode="&#xb9;" horiz-adv-x="300" 
d="M66 284l8 47h62l47 265l-63 -21l-9 45l157 53l-62 -342h74l-13 -47h-201z" />
    <glyph glyph-name="threequarters" unicode="&#xbe;" horiz-adv-x="676" 
d="M567 571l-330 -477h-63l342 497zM321 71l225 262l61 -20l-44 -223h70l-23 -54h-57l-9 -44l-4 -50h-80l19 94h-158v35zM490 90l26 142l-122 -142h96zM46 286l-5 51c4 0 9 -1 15 -1c58 0 167 10 167 71c0 32 -41 50 -78 56l14 40c41 17 83 33 83 76c0 30 -24 40 -45 40
c-35 0 -78 -23 -79 -22l-13 45s50 25 104 25c47 0 108 -22 108 -81c0 -39 -29 -69 -84 -89c40 -8 67 -43 67 -82c0 -91 -122 -130 -224 -130c-7 0 -30 1 -30 1z" />
    <glyph glyph-name="threesuperior" unicode="&#xb3;" horiz-adv-x="349" 
d="M46 286l-5 51c4 0 9 -1 15 -1c58 0 167 10 167 71c0 32 -41 50 -78 56l14 40c41 17 83 33 83 76c0 30 -24 40 -45 40c-35 0 -78 -23 -79 -22l-13 45s50 25 104 25c47 0 108 -22 108 -81c0 -39 -29 -69 -84 -89c40 -8 67 -43 67 -82c0 -91 -122 -130 -224 -130
c-7 0 -30 1 -30 1z" />
    <glyph glyph-name="twosuperior" unicode="&#xb2;" horiz-adv-x="349" 
d="M284 286h-229v29l13 12c42 38 176 162 176 245c0 25 -11 47 -39 47c-34 0 -79 -20 -88 -23l-13 50s59 23 109 23c61 0 108 -32 108 -92c0 -101 -164 -236 -164 -236h143z" />
    <glyph glyph-name="Eth" unicode="&#xd0;" horiz-adv-x="658" 
d="M52 374h71l37 192l4 92h246c123 0 210 -105 210 -255c0 -213 -139 -403 -357 -403h-213l58 300h-71zM380 595h-125l-43 -221h131l-35 -74h-110l-45 -233h122c130 0 251 152 251 324c0 93 -51 204 -146 204z" />
    <glyph glyph-name="eth" unicode="&#xf0;" horiz-adv-x="535" 
d="M530 680l-83 -34c45 -66 62 -152 62 -240c0 -202 -89 -419 -299 -419c-144 0 -172 116 -172 190c0 173 124 328 258 328c82 0 127 -42 127 -42c-9 61 -28 109 -59 150l-140 -56l-11 43l118 48c-26 21 -57 38 -94 49l46 59c57 -14 101 -39 134 -73l122 49zM422 385
c0 0 -44 55 -118 55c-113 0 -179 -150 -179 -251c0 -78 35 -138 103 -138c136 0 194 224 194 334z" />
    <glyph glyph-name="Lslash" unicode="&#x141;" horiz-adv-x="426" 
d="M9 265l102 52l49 249l4 92h103l-56 -288l147 75l-1 -76l-162 -84l-41 -212h254l-34 -73h-324l45 232l-66 -34z" />
    <glyph glyph-name="lslash" unicode="&#x142;" horiz-adv-x="254" 
d="M271 755l-77 -394l76 39l-1 -76l-92 -47l-39 -202l-5 -75h-93l44 227l-55 -29l-19 67l90 46l67 341l5 92z" />
    <glyph glyph-name="Scaron" unicode="&#x160;" horiz-adv-x="452" 
d="M448 641l-40 -73s-59 29 -119 29c-62 0 -112 -41 -112 -96c0 -126 220 -155 220 -317c0 -118 -99 -197 -216 -197c-112 0 -169 44 -169 44l18 76c-2 -1 72 -46 145 -46c53 0 128 31 128 107c0 128 -221 158 -221 314c0 113 107 188 213 188c90 0 153 -29 153 -29z
M332 712h-66l-111 143l57 20l93 -93l111 93l53 -20z" />
    <glyph glyph-name="scaron" unicode="&#x161;" horiz-adv-x="395" 
d="M71 364c0 89 90 143 177 143c67 0 131 -24 131 -24l-32 -72s-49 31 -110 31c-35 0 -83 -22 -83 -64c0 -100 186 -96 186 -243c0 -98 -89 -148 -173 -148c-85 0 -137 43 -137 43v84s67 -58 134 -58c38 0 92 19 92 69c0 94 -185 89 -185 239zM278 561h-66l-111 143l57 20
l93 -93l111 93l53 -20z" />
    <glyph glyph-name="Yacute" unicode="&#xdd;" horiz-adv-x="508" 
d="M294 297l-43 -222l-4 -75h-100l56 290l-97 297l-39 71h109l82 -247l7 -40l27 42l176 245h95zM392 875h110l-194 -163l-53 20z" />
    <glyph glyph-name="yacute" unicode="&#xfd;" horiz-adv-x="450" 
d="M-104 -152c15 -6 31 -10 49 -10c50 0 101 29 150 101l44 65l-8 21l-54 384l-28 83l98 13l50 -345l1 -72l33 69l107 179c41 69 24 121 5 156l91 13c34 -74 10 -137 -32 -205l-244 -394c-61 -98 -146 -149 -214 -149c-17 0 -34 4 -50 11zM337 723h110l-194 -163l-53 20z
" />
    <glyph glyph-name="Thorn" unicode="&#xde;" horiz-adv-x="503" 
d="M247 598h77c108 0 179 -55 179 -149c0 -150 -106 -263 -280 -263h-56l-21 -111l-5 -75h-100l123 634l9 112l105 10zM235 537l-56 -287h56c112 0 172 86 172 188c0 60 -35 99 -102 99h-70z" />
    <glyph glyph-name="thorn" unicode="&#xfe;" horiz-adv-x="530" 
d="M280 748l-55 -283l-17 -58s83 98 169 98c58 0 110 -52 110 -159c0 -178 -84 -359 -261 -359c-35 0 -90 15 -91 18l-33 -170l-5 -75h-93l172 885l-7 82zM198 328l-50 -257s34 -16 78 -16c106 0 173 139 173 277c0 67 -29 93 -59 93c-50 0 -142 -97 -142 -97z" />
    <glyph glyph-name="Zcaron" unicode="&#x17d;" horiz-adv-x="544" 
d="M-25 0v25l408 502l52 54h-339l36 77h452v-25l-409 -503l-51 -54h374l-14 -76h-509zM406 711h-66l-111 143l57 20l93 -93l111 93l53 -20z" />
    <glyph glyph-name="zcaron" unicode="&#x17e;" horiz-adv-x="472" 
d="M-2 0v19l284 364l39 41h-252l33 68h353v-19l-283 -364l-39 -41h297l-13 -68h-419zM312 561h-66l-111 143l57 20l93 -93l111 93l53 -20z" />
    <glyph glyph-name="multiply" unicode="&#xd7;" horiz-adv-x="429" 
d="M342 76l-125 124l-122 -122l-52 52l122 123l-127 126l63 36l114 -113l126 127l38 -67l-112 -112l124 -125z" />
    <glyph glyph-name="exclam" unicode="!" horiz-adv-x="269" 
d="M171 50c0 -35 -28 -63 -62 -63s-62 28 -62 63c0 33 28 61 62 61s62 -28 62 -61zM290 756l-130 -578l-64 8l75 468l5 90z" />
    <glyph glyph-name="quotedbl" unicode="&#x22;" horiz-adv-x="375" 
d="M129 543l4 112l93 16l-48 -244l-73 -1zM289 543l4 112l93 16l-48 -244l-73 -1z" />
    <glyph glyph-name="numbersign" unicode="#" horiz-adv-x="704" 
d="M603 184h-148l-54 -184h-77l54 184h-146l-54 -184h-77l54 184h-145l13 64h152l56 186h-144l12 64h151l48 160h76l-48 -160h146l48 160h77l-48 -160h150l-20 -64h-148l-56 -186h149zM398 248l56 186h-146l-56 -186h146z" />
    <glyph glyph-name="dollar" unicode="$" horiz-adv-x="452" 
d="M345 756l-17 -88c43 -5 90 -20 124 -43l-40 -78c-15 17 -53 40 -99 46l-41 -213c60 -43 125 -92 125 -193c0 -113 -91 -192 -201 -199l-15 -82h-51l16 83c-89 10 -134 52 -134 52l18 78c23 -28 80 -51 130 -56l45 231c-59 44 -123 94 -123 188c0 107 95 180 195 187
l17 87h51zM304 168c0 38 -24 66 -55 92l-38 -194c47 12 93 52 93 102zM174 501c0 -38 23 -64 54 -89l34 180c-50 -9 -88 -44 -88 -91z" />
    <glyph glyph-name="percent" unicode="%" horiz-adv-x="798" 
d="M381 507c0 -82 -72 -150 -153 -150c-79 0 -150 68 -150 150s71 150 150 150c81 0 153 -68 153 -150zM322 509c0 49 -46 90 -93 90c-50 0 -92 -41 -92 -90c0 -46 39 -97 92 -97c59 0 93 51 93 97zM756 137c0 -82 -72 -150 -153 -150c-79 0 -150 68 -150 150
s71 150 150 150c81 0 153 -68 153 -150zM697 139c0 49 -46 90 -93 90c-50 0 -92 -41 -92 -90c0 -46 39 -97 92 -97c59 0 93 51 93 97zM733 647l-564 -647h-84l587 674z" />
    <glyph glyph-name="ampersand" unicode="&#x26;" horiz-adv-x="704" 
d="M394 310l36 73c137 8 213 66 242 97l20 -79c-22 -17 -47 -35 -79 -51c0 0 2 -23 2 -35c0 -202 -146 -328 -315 -328c-112 0 -239 70 -239 226c0 93 49 190 148 235c-26 36 -36 81 -36 114c0 103 110 193 248 193c84 0 158 -44 158 -44l-30 -79c0 2 -65 49 -132 49
c-78 0 -149 -59 -149 -129c0 -54 41 -118 41 -118l-2 -8c-90 -38 -150 -123 -150 -207c0 -106 78 -156 155 -156c111 0 215 105 215 238c0 10 -3 19 -3 19c-41 -10 -97 -14 -130 -10z" />
    <glyph glyph-name="quotesingle" unicode="'" horiz-adv-x="215" 
d="M129 543l4 112l93 16l-48 -244l-73 -1z" />
    <glyph glyph-name="parenleft" unicode="(" horiz-adv-x="318" 
d="M324 679l61 -21c-146 -116 -252 -367 -252 -577c0 -178 49 -287 65 -295l-64 -21c-62 82 -86 195 -86 314c0 230 103 482 276 600z" />
    <glyph glyph-name="parenright" unicode=")" horiz-adv-x="308" 
d="M-24 -235l-61 21c146 116 252 367 252 577c0 178 -49 287 -65 295l64 21c62 -82 86 -195 86 -314c0 -230 -103 -482 -276 -600z" />
    <glyph glyph-name="asterisk" unicode="*" horiz-adv-x="402" 
d="M22 549l30 62h113l-71 124l68 5l57 -99l72 125l38 -57l-57 -98h144l-30 -62h-114l72 -124l-68 -5l-57 98l-72 -124l-38 57l56 98h-143z" />
    <glyph glyph-name="plus" unicode="+" horiz-adv-x="471" 
d="M199 70v146h-143v74h143v150l74 -20v-130h149l-20 -74h-129v-146h-74z" />
    <glyph glyph-name="comma" unicode="," horiz-adv-x="250" 
d="M23 -139l-28 35c27 23 75 84 75 121c0 13 -1 28 -21 33c0 37 29 63 64 63c29 0 51 -26 51 -61c0 -61 -61 -140 -141 -191z" />
    <glyph glyph-name="hyphen" unicode="-" horiz-adv-x="302" 
d="M39 284h251l-20 -74h-231v74z" />
    <glyph glyph-name="period" unicode="." horiz-adv-x="237" 
d="M164 50c0 -35 -28 -63 -62 -63s-62 28 -62 63c0 33 28 61 62 61s62 -28 62 -61z" />
    <glyph glyph-name="slash" unicode="/" horiz-adv-x="356" 
d="M356 657l-286 -901h-74l283 901h77z" />
    <glyph glyph-name="zero" unicode="0" 
d="M298 588c115 0 158 -89 158 -188c0 -205 -70 -413 -252 -413c-80 0 -159 55 -159 186c0 212 90 415 253 415zM293 522c-126 0 -163 -249 -163 -354c0 -71 30 -117 84 -117c122 0 158 236 158 342c0 64 -16 129 -79 129z" />
    <glyph glyph-name="one" unicode="1" horiz-adv-x="370" 
d="M21 0l12 66h95l76 423l-102 -32l-12 61l217 71l-95 -523h115l-21 -66h-285z" />
    <glyph glyph-name="two" unicode="2" 
d="M353 0h-324v45c35 33 292 253 292 395c0 40 -22 77 -75 77c-52 0 -123 -33 -122 -33l-19 72c-1 -1 84 32 153 32c91 0 154 -52 154 -143c0 -157 -257 -367 -257 -367h222z" />
    <glyph glyph-name="three" unicode="3" 
d="M13 -31c0 0 15 -1 19 -1c97 0 263 51 263 195c0 71 -68 89 -123 97l23 59c63 29 128 70 128 131c0 53 -37 70 -73 70c-59 0 -120 -37 -119 -37l-20 70c-2 0 71 35 150 35c75 0 148 -39 148 -123c0 -62 -47 -129 -132 -156c50 -7 107 -40 107 -137
c0 -174 -183 -273 -333 -273c-9 0 -24 1 -31 2z" />
    <glyph glyph-name="four" unicode="4" 
d="M3 139l336 451l71 -22l-71 -405h105l-35 -78h-85l-19 -110l-3 -75h-94l32 185h-237v54zM257 163l45 252l15 58l-39 -70l-149 -215l-22 -25h150z" />
    <glyph glyph-name="five" unicode="5" 
d="M435 575l-33 -78h-177l-28 -131h2c112 -8 172 -83 172 -176c0 -169 -134 -291 -310 -291c-8 0 -16 0 -24 1l-8 68c105 0 251 46 251 209c0 77 -52 124 -132 124c-19 0 -42 -2 -42 -2l59 276h270z" />
    <glyph glyph-name="six" unicode="6" 
d="M221 58c80 0 123 100 123 175c0 82 -43 118 -94 118c-54 0 -111 -43 -111 -43c-5 -30 -8 -60 -8 -88c0 -77 16 -162 90 -162zM466 575c-33 15 -63 22 -91 22c-106 0 -180 -101 -219 -220c0 0 59 44 130 44c76 0 144 -54 144 -172c0 -148 -90 -262 -229 -262
c-108 0 -153 109 -153 227c0 205 130 457 332 457c37 0 76 -8 117 -26z" />
    <glyph glyph-name="seven" unicode="7" 
d="M97 -111l-77 15l354 593h-274l-15 78h402l11 -23z" />
    <glyph glyph-name="eight" unicode="8" 
d="M197 -13c-96 0 -163 60 -163 142c0 102 78 159 163 217c-46 45 -85 100 -85 156c0 109 90 166 178 166c98 0 146 -63 146 -122c0 -84 -78 -152 -130 -187c52 -49 96 -107 96 -174c0 -119 -103 -198 -205 -198zM234 309c-54 -38 -120 -91 -120 -160c0 -51 39 -90 97 -90
c66 0 109 57 109 103c0 62 -48 110 -86 147zM266 397c54 38 91 84 91 133c0 42 -28 78 -80 78c-56 0 -83 -46 -83 -83c0 -55 41 -98 72 -128z" />
    <glyph glyph-name="nine" unicode="9" 
d="M269 516c-80 0 -123 -100 -123 -175c0 -82 43 -118 94 -118c54 0 111 43 111 43c5 30 8 60 8 88c0 77 -16 162 -90 162zM24 -17c32 -16 62 -22 89 -22c112 0 181 113 221 236c0 0 -59 -44 -130 -44c-76 0 -144 54 -144 172c0 148 90 262 229 262c108 0 153 -109 153 -227
c0 -205 -118 -474 -334 -474c-36 0 -75 8 -115 27z" />
    <glyph glyph-name="colon" unicode=":" horiz-adv-x="258" 
d="M164 50c0 -35 -28 -63 -62 -63s-62 28 -62 63c0 33 28 61 62 61s62 -28 62 -61zM214 326c0 -35 -28 -63 -62 -63s-62 28 -62 63c0 33 28 61 62 61s62 -28 62 -61z" />
    <glyph glyph-name="semicolon" unicode=";" horiz-adv-x="258" 
d="M221 326c0 -35 -28 -63 -62 -63s-62 28 -62 63c0 33 28 61 62 61s62 -28 62 -61zM8 -136l-22 42c36 23 90 72 90 109c0 13 -7 23 -23 33c7 33 31 63 68 63c31 0 56 -23 56 -54c0 -61 -59 -141 -169 -193z" />
    <glyph glyph-name="less" unicode="&#x3c;" horiz-adv-x="369" 
d="M324 413l-174 -167l174 -165l-40 -65l-245 231l245 231z" />
    <glyph glyph-name="equal" unicode="=" horiz-adv-x="480" 
d="M56 203h360l-20 -74h-340v74zM56 368h370l-20 -74h-350v74z" />
    <glyph glyph-name="greater" unicode="&#x3e;" horiz-adv-x="369" 
d="M213 246l-174 167l40 65l245 -231l-245 -231l-40 65z" />
    <glyph glyph-name="question" unicode="?" horiz-adv-x="411" 
d="M163 164l-72 31c0 3 -1 6 -1 10c0 142 250 256 250 396c0 45 -46 71 -86 71c-47 0 -107 -42 -108 -45l-21 83c0 5 81 43 145 43c84 0 167 -52 167 -145c0 -162 -276 -297 -276 -425c0 -6 0 -13 2 -19zM189 50c0 -35 -28 -63 -62 -63s-62 28 -62 63c0 33 28 61 62 61
s62 -28 62 -61z" />
    <glyph glyph-name="at" unicode="@" horiz-adv-x="902" 
d="M631 416c-51 -281 -54 -302 -54 -325c0 -15 5 -43 11 -49c125 51 193 154 193 272c0 140 -88 281 -277 281c-212 0 -380 -220 -380 -417c0 -141 63 -280 274 -307l-59 -64c-213 38 -295 205 -295 359c0 235 186 492 472 492c224 0 341 -168 341 -335
c0 -198 -159 -330 -327 -360c-20 17 -42 81 -39 105c-4 0 -65 -77 -144 -77c-71 0 -117 62 -117 153c0 178 152 362 347 362c28 0 51 -5 81 -15zM490 117l61 321c-128 0 -229 -144 -229 -268c0 -55 27 -98 73 -98c29 0 54 10 95 45z" />
    <glyph glyph-name="asciitilde" unicode="~" horiz-adv-x="578" 
d="M529 269c-35 -36 -83 -62 -137 -62c-98 0 -141 64 -216 64c-42 0 -75 -23 -98 -43l-29 61c31 27 77 55 134 55c99 0 132 -64 215 -64c33 0 71 21 101 48z" />
    <glyph glyph-name="Adieresis" unicode="&#xc4;" horiz-adv-x="549" 
d="M-62 0l381 659l63 12l95 -561l28 -110h-101l-28 172h-249l-98 -172h-91zM298 474l-129 -226h194l-39 226l-4 45zM308 782c0 -31 -23 -55 -50 -55s-50 24 -50 55c0 30 23 55 50 55s50 -25 50 -55zM492 782c0 -31 -23 -55 -50 -55s-50 24 -50 55c0 30 23 55 50 55
s50 -25 50 -55z" />
    <glyph glyph-name="Aring" unicode="&#xc5;" horiz-adv-x="549" 
d="M-62 0l381 659l63 12l95 -561l28 -110h-101l-28 172h-249l-98 -172h-91zM298 474l-129 -226h194l-39 226l-4 45zM441 791c0 -48 -43 -88 -91 -88c-47 0 -89 40 -89 88s42 88 89 88c48 0 91 -40 91 -88zM404 792c0 29 -26 53 -53 53c-29 0 -53 -24 -53 -53
c0 -27 22 -57 53 -57c34 0 53 30 53 57z" />
    <glyph glyph-name="Ccedilla" unicode="&#xc7;" horiz-adv-x="605" 
d="M615 606l-55 -63s-59 53 -149 53c-138 0 -260 -149 -260 -332c0 -101 57 -202 179 -202c66 0 135 36 195 98l6 -93c-73 -58 -144 -80 -223 -80c-150 0 -249 115 -249 267c0 234 145 417 360 417c123 0 196 -65 196 -65zM276 -58l14 51h29c27 -39 101 -65 101 -133
c0 -50 -48 -95 -124 -95c-33 0 -68 11 -94 31l29 49c12 -11 40 -23 67 -23c33 0 54 11 54 37c0 30 -44 49 -76 83z" />
    <glyph glyph-name="Eacute" unicode="&#xc9;" horiz-adv-x="497" 
d="M50 0l110 566l4 92h323l-13 -72h-220l-42 -214h203l-34 -72h-183l-43 -228h242l-35 -72h-312zM388 875h110l-194 -163l-53 20z" />
    <glyph glyph-name="Ntilde" unicode="&#xd1;" horiz-adv-x="734" 
d="M714 658l-112 -583l-8 -75h-37l-299 423l-34 62l-77 -410l-4 -75h-93l109 566l-9 92h66l290 -417l33 -67l75 392l4 92h96zM572 823l40 -26c-26 -40 -45 -71 -109 -71c-60 0 -84 36 -122 36c-15 0 -32 -6 -53 -33l-40 26c26 40 45 71 109 71c54 0 82 -38 121 -38
c17 0 38 6 54 35z" />
    <glyph glyph-name="Odieresis" unicode="&#xd6;" horiz-adv-x="649" 
d="M377 597c-99 0 -236 -118 -236 -342c0 -114 60 -197 150 -197c137 0 237 184 237 337c0 113 -54 202 -151 202zM48 243c0 225 125 427 339 427c179 0 234 -157 234 -256c0 -248 -144 -427 -343 -427c-151 0 -230 119 -230 256zM382 782c0 -31 -23 -55 -50 -55
s-50 24 -50 55c0 30 23 55 50 55s50 -25 50 -55zM566 782c0 -31 -23 -55 -50 -55s-50 24 -50 55c0 30 23 55 50 55s50 -25 50 -55z" />
    <glyph glyph-name="Udieresis" unicode="&#xdc;" horiz-adv-x="663" 
d="M560 658h94l-77 -395c-31 -158 -125 -276 -277 -276c-227 0 -232 171 -206 316l48 263l5 92h104l-66 -358c-18 -94 -30 -240 121 -240c99 0 168 91 188 192l61 314zM369 782c0 -31 -23 -55 -50 -55s-50 24 -50 55c0 30 23 55 50 55s50 -25 50 -55zM553 782
c0 -31 -23 -55 -50 -55s-50 24 -50 55c0 30 23 55 50 55s50 -25 50 -55z" />
    <glyph glyph-name="aacute" unicode="&#xe1;" horiz-adv-x="507" 
d="M318 161l53 275s-50 8 -65 8c-86 0 -180 -131 -180 -283c0 -42 15 -99 58 -99c47 0 133 99 134 99zM308 62l2 21s-71 -96 -155 -96c-61 0 -117 54 -117 159c0 179 105 359 261 359c71 0 127 -11 167 -13l-65 -338c-14 -72 -12 -110 28 -154l-89 -13c-23 18 -32 47 -32 75
zM376 724h110l-194 -163l-53 20z" />
    <glyph glyph-name="agrave" unicode="&#xe0;" horiz-adv-x="507" 
d="M318 161l53 275s-50 8 -65 8c-86 0 -180 -131 -180 -283c0 -42 15 -99 58 -99c47 0 133 99 134 99zM308 62l2 21s-71 -96 -155 -96c-61 0 -117 54 -117 159c0 179 105 359 261 359c71 0 127 -11 167 -13l-65 -338c-14 -72 -12 -110 28 -154l-89 -13c-23 18 -32 47 -32 75
zM168 724h110l111 -143l-57 -20z" />
    <glyph glyph-name="acircumflex" unicode="&#xe2;" horiz-adv-x="507" 
d="M318 161l53 275s-50 8 -65 8c-86 0 -180 -131 -180 -283c0 -42 15 -99 58 -99c47 0 133 99 134 99zM308 62l2 21s-71 -96 -155 -96c-61 0 -117 54 -117 159c0 179 105 359 261 359c71 0 127 -11 167 -13l-65 -338c-14 -72 -12 -110 28 -154l-89 -13c-23 18 -32 47 -32 75
zM295 724h62l111 -143l-55 -20l-94 93l-110 -93l-51 20z" />
    <glyph glyph-name="adieresis" unicode="&#xe4;" horiz-adv-x="507" 
d="M318 161l53 275s-50 8 -65 8c-86 0 -180 -131 -180 -283c0 -42 15 -99 58 -99c47 0 133 99 134 99zM308 62l2 21s-71 -96 -155 -96c-61 0 -117 54 -117 159c0 179 105 359 261 359c71 0 127 -11 167 -13l-65 -338c-14 -72 -12 -110 28 -154l-89 -13c-23 18 -32 47 -32 75
zM277 631c0 -31 -23 -55 -50 -55s-50 24 -50 55c0 30 23 55 50 55s50 -25 50 -55zM461 631c0 -31 -23 -55 -50 -55s-50 24 -50 55c0 30 23 55 50 55s50 -25 50 -55z" />
    <glyph glyph-name="atilde" unicode="&#xe3;" horiz-adv-x="507" 
d="M318 161l53 275s-50 8 -65 8c-86 0 -180 -131 -180 -283c0 -42 15 -99 58 -99c47 0 133 99 134 99zM308 62l2 21s-71 -96 -155 -96c-61 0 -117 54 -117 159c0 179 105 359 261 359c71 0 127 -11 167 -13l-65 -338c-14 -72 -12 -110 28 -154l-89 -13c-23 18 -32 47 -32 75
zM441 672l40 -26c-26 -40 -45 -71 -109 -71c-60 0 -84 36 -122 36c-15 0 -32 -6 -53 -33l-40 26c26 40 45 71 109 71c54 0 82 -38 121 -38c17 0 38 6 54 35z" />
    <glyph glyph-name="aring" unicode="&#xe5;" horiz-adv-x="507" 
d="M318 161l53 275s-50 8 -65 8c-86 0 -180 -131 -180 -283c0 -42 15 -99 58 -99c47 0 133 99 134 99zM308 62l2 21s-71 -96 -155 -96c-61 0 -117 54 -117 159c0 179 105 359 261 359c71 0 127 -11 167 -13l-65 -338c-14 -72 -12 -110 28 -154l-89 -13c-23 18 -32 47 -32 75
zM410 640c0 -48 -43 -88 -91 -88c-47 0 -89 40 -89 88s42 88 89 88c48 0 91 -40 91 -88zM373 641c0 29 -26 53 -53 53c-29 0 -53 -24 -53 -53c0 -27 22 -57 53 -57c34 0 53 30 53 57z" />
    <glyph glyph-name="ccedilla" unicode="&#xe7;" horiz-adv-x="445" 
d="M432 483l-32 -72c2 1 -65 27 -108 27c-107 0 -166 -123 -166 -222c0 -80 31 -155 119 -155c86 0 147 79 147 79v-87s-55 -66 -161 -66c-133 0 -193 96 -193 206c0 199 117 314 253 314c67 0 141 -24 141 -24zM184 -58l14 51h29c27 -39 101 -65 101 -133
c0 -50 -48 -95 -124 -95c-33 0 -68 11 -94 31l29 49c12 -11 40 -23 67 -23c33 0 54 11 54 37c0 30 -44 49 -76 83z" />
    <glyph glyph-name="eacute" unicode="&#xe9;" horiz-adv-x="449" 
d="M423 398c0 -132 -148 -189 -291 -189v-10c0 -72 33 -135 116 -135c82 0 150 76 150 76v-87s-51 -66 -171 -66c-123 0 -183 96 -183 206c0 163 99 314 249 314c88 0 130 -47 130 -109zM280 442c-77 0 -126 -86 -142 -175c25 1 194 14 194 121c0 23 -9 54 -52 54zM337 724
h110l-194 -163l-53 20z" />
    <glyph glyph-name="egrave" unicode="&#xe8;" horiz-adv-x="449" 
d="M423 398c0 -132 -148 -189 -291 -189v-10c0 -72 33 -135 116 -135c82 0 150 76 150 76v-87s-51 -66 -171 -66c-123 0 -183 96 -183 206c0 163 99 314 249 314c88 0 130 -47 130 -109zM280 442c-77 0 -126 -86 -142 -175c25 1 194 14 194 121c0 23 -9 54 -52 54zM129 724
h110l111 -143l-57 -20z" />
    <glyph glyph-name="ecircumflex" unicode="&#xea;" horiz-adv-x="449" 
d="M423 398c0 -132 -148 -189 -291 -189v-10c0 -72 33 -135 116 -135c82 0 150 76 150 76v-87s-51 -66 -171 -66c-123 0 -183 96 -183 206c0 163 99 314 249 314c88 0 130 -47 130 -109zM280 442c-77 0 -126 -86 -142 -175c25 1 194 14 194 121c0 23 -9 54 -52 54zM256 724
h62l111 -143l-55 -20l-94 93l-110 -93l-51 20z" />
    <glyph glyph-name="edieresis" unicode="&#xeb;" horiz-adv-x="449" 
d="M423 398c0 -132 -148 -189 -291 -189v-10c0 -72 33 -135 116 -135c82 0 150 76 150 76v-87s-51 -66 -171 -66c-123 0 -183 96 -183 206c0 163 99 314 249 314c88 0 130 -47 130 -109zM280 442c-77 0 -126 -86 -142 -175c25 1 194 14 194 121c0 23 -9 54 -52 54zM238 631
c0 -31 -23 -55 -50 -55s-50 24 -50 55c0 30 23 55 50 55s50 -25 50 -55zM422 631c0 -31 -23 -55 -50 -55s-50 24 -50 55c0 30 23 55 50 55s50 -25 50 -55z" />
    <glyph glyph-name="iacute" unicode="&#xed;" horiz-adv-x="261" 
d="M224 503l-84 -428l-4 -75h-94l78 400l5 92zM239 724h110l-194 -163l-53 20z" />
    <glyph glyph-name="igrave" unicode="&#xec;" horiz-adv-x="261" 
d="M224 503l-84 -428l-4 -75h-94l78 400l5 92zM31 724h110l111 -143l-57 -20z" />
    <glyph glyph-name="icircumflex" unicode="&#xee;" horiz-adv-x="261" 
d="M224 503l-84 -428l-4 -75h-94l78 400l5 92zM158 724h62l111 -143l-55 -20l-94 93l-110 -93l-51 20z" />
    <glyph glyph-name="idieresis" unicode="&#xef;" horiz-adv-x="261" 
d="M224 503l-84 -428l-4 -75h-94l78 400l5 92zM140 631c0 -31 -23 -55 -50 -55s-50 24 -50 55c0 30 23 55 50 55s50 -25 50 -55zM324 631c0 -31 -23 -55 -50 -55s-50 24 -50 55c0 30 23 55 50 55s50 -25 50 -55z" />
    <glyph glyph-name="ntilde" unicode="&#xf1;" horiz-adv-x="541" 
d="M421 0h-93l61 325c6 30 18 99 -33 99c-69 0 -167 -93 -167 -93l-49 -256l-6 -75h-92l78 400l-7 82l99 21l-15 -97s101 100 192 100c87 0 105 -69 92 -148l-55 -285zM466 672l40 -26c-26 -40 -45 -71 -109 -71c-60 0 -84 36 -122 36c-15 0 -32 -6 -53 -33l-40 26
c26 40 45 71 109 71c54 0 82 -38 121 -38c17 0 38 6 54 35z" />
    <glyph glyph-name="oacute" unicode="&#xf3;" horiz-adv-x="503" 
d="M220 54c67 0 155 82 155 244c0 77 -38 143 -97 143c-87 0 -152 -133 -152 -243c0 -82 29 -144 94 -144zM463 312c0 -170 -90 -325 -263 -325c-129 0 -162 118 -162 193c0 189 98 327 265 327c88 0 160 -72 160 -195zM372 724h110l-194 -163l-53 20z" />
    <glyph glyph-name="ograve" unicode="&#xf2;" horiz-adv-x="503" 
d="M220 54c67 0 155 82 155 244c0 77 -38 143 -97 143c-87 0 -152 -133 -152 -243c0 -82 29 -144 94 -144zM463 312c0 -170 -90 -325 -263 -325c-129 0 -162 118 -162 193c0 189 98 327 265 327c88 0 160 -72 160 -195zM164 724h110l111 -143l-57 -20z" />
    <glyph glyph-name="ocircumflex" unicode="&#xf4;" horiz-adv-x="503" 
d="M220 54c67 0 155 82 155 244c0 77 -38 143 -97 143c-87 0 -152 -133 -152 -243c0 -82 29 -144 94 -144zM463 312c0 -170 -90 -325 -263 -325c-129 0 -162 118 -162 193c0 189 98 327 265 327c88 0 160 -72 160 -195zM291 724h62l111 -143l-55 -20l-94 93l-110 -93l-51 20
z" />
    <glyph glyph-name="odieresis" unicode="&#xf6;" horiz-adv-x="503" 
d="M220 54c67 0 155 82 155 244c0 77 -38 143 -97 143c-87 0 -152 -133 -152 -243c0 -82 29 -144 94 -144zM463 312c0 -170 -90 -325 -263 -325c-129 0 -162 118 -162 193c0 189 98 327 265 327c88 0 160 -72 160 -195zM273 631c0 -31 -23 -55 -50 -55s-50 24 -50 55
c0 30 23 55 50 55s50 -25 50 -55zM457 631c0 -31 -23 -55 -50 -55s-50 24 -50 55c0 30 23 55 50 55s50 -25 50 -55z" />
    <glyph glyph-name="otilde" unicode="&#xf5;" horiz-adv-x="503" 
d="M220 54c67 0 155 82 155 244c0 77 -38 143 -97 143c-87 0 -152 -133 -152 -243c0 -82 29 -144 94 -144zM463 312c0 -170 -90 -325 -263 -325c-129 0 -162 118 -162 193c0 189 98 327 265 327c88 0 160 -72 160 -195zM437 672l40 -26c-26 -40 -45 -71 -109 -71
c-60 0 -84 36 -122 36c-15 0 -32 -6 -53 -33l-40 26c26 40 45 71 109 71c54 0 82 -38 121 -38c17 0 38 6 54 35z" />
    <glyph glyph-name="uacute" unicode="&#xfa;" horiz-adv-x="546" 
d="M501 492l-65 -338c-14 -72 -14 -110 26 -154l-89 -13c-23 18 -32 47 -32 75l3 25s-99 -101 -190 -101c-87 0 -105 69 -92 148l55 285l5 73h93l-61 -325c-6 -30 -18 -99 33 -99c69 0 167 93 167 93l49 256l6 75h92zM378 724h110l-194 -163l-53 20z" />
    <glyph glyph-name="ugrave" unicode="&#xf9;" horiz-adv-x="546" 
d="M501 492l-65 -338c-14 -72 -14 -110 26 -154l-89 -13c-23 18 -32 47 -32 75l3 25s-99 -101 -190 -101c-87 0 -105 69 -92 148l55 285l5 73h93l-61 -325c-6 -30 -18 -99 33 -99c69 0 167 93 167 93l49 256l6 75h92zM170 724h110l111 -143l-57 -20z" />
    <glyph glyph-name="ucircumflex" unicode="&#xfb;" horiz-adv-x="546" 
d="M501 492l-65 -338c-14 -72 -14 -110 26 -154l-89 -13c-23 18 -32 47 -32 75l3 25s-99 -101 -190 -101c-87 0 -105 69 -92 148l55 285l5 73h93l-61 -325c-6 -30 -18 -99 33 -99c69 0 167 93 167 93l49 256l6 75h92zM297 724h62l111 -143l-55 -20l-94 93l-110 -93l-51 20z
" />
    <glyph glyph-name="udieresis" unicode="&#xfc;" horiz-adv-x="546" 
d="M501 492l-65 -338c-14 -72 -14 -110 26 -154l-89 -13c-23 18 -32 47 -32 75l3 25s-99 -101 -190 -101c-87 0 -105 69 -92 148l55 285l5 73h93l-61 -325c-6 -30 -18 -99 33 -99c69 0 167 93 167 93l49 256l6 75h92zM279 631c0 -31 -23 -55 -50 -55s-50 24 -50 55
c0 30 23 55 50 55s50 -25 50 -55zM463 631c0 -31 -23 -55 -50 -55s-50 24 -50 55c0 30 23 55 50 55s50 -25 50 -55z" />
    <glyph glyph-name="dagger" unicode="&#x2020;" horiz-adv-x="487" 
d="M175 -245h-83l130 669h-129l14 68h129l30 158l86 11l-33 -169h163l-44 -68h-133z" />
    <glyph glyph-name="degree" unicode="&#xb0;" horiz-adv-x="399" 
d="M411 576c0 -92 -80 -168 -170 -168c-88 0 -168 76 -168 168s80 167 168 167c90 0 170 -75 170 -167zM345 578c0 54 -51 100 -103 100c-56 0 -103 -46 -103 -100c0 -52 43 -108 103 -108c66 0 103 56 103 108z" />
    <glyph glyph-name="cent" unicode="&#xa2;" horiz-adv-x="461" 
d="M366 600l-19 -97c49 -7 91 -20 91 -20l-32 -72c1 0 -36 15 -72 23l-72 -373c80 7 136 79 136 79v-87s-52 -62 -151 -66l-18 -96h-50l19 99c-106 17 -154 104 -154 203c0 199 117 314 253 314h1l18 93h50zM132 216c0 -67 22 -131 81 -150l71 371
c-98 -10 -152 -126 -152 -221z" />
    <glyph glyph-name="sterling" unicode="&#xa3;" horiz-adv-x="549" 
d="M455 -102h-497c1 0 108 166 143 340l7 35h-61l13 68h61l42 214c27 138 168 199 246 199c124 0 174 -64 174 -64l-46 -66s-55 57 -132 57c-82 0 -141 -57 -153 -118l-44 -222h207l-43 -68h-177l-8 -44c-30 -152 -97 -257 -97 -257h397z" />
    <glyph glyph-name="section" unicode="&#xa7;" horiz-adv-x="420" 
d="M327 677v-696c0 -102 -86 -154 -177 -154c-109 0 -167 83 -167 83l13 69c28 -42 73 -76 118 -83v713c0 90 90 137 177 137c102 0 168 -69 168 -69l-13 -73c-29 39 -75 67 -119 73zM180 568v-673c67 13 81 54 81 132v651c-55 -8 -81 -39 -81 -110z" />
    <glyph glyph-name="bullet" unicode="&#x2022;" horiz-adv-x="424" 
d="M211 379c73 0 133 -59 133 -132c0 -75 -60 -134 -133 -134c-75 0 -134 59 -134 134c0 73 59 132 134 132z" />
    <glyph glyph-name="paragraph" unicode="&#xb6;" horiz-adv-x="622" 
d="M62 309c0 176 167 349 357 349h60l-175 -902h-60l61 316c-143 0 -243 102 -243 237zM604 658l-175 -902h-60l175 902h60z" />
    <glyph glyph-name="germandbls" unicode="&#xdf;" horiz-adv-x="560" 
d="M457 631c0 36 -44 53 -87 53c-84 0 -136 -38 -146 -101l-94 -594c-22 -136 -91 -230 -203 -231l-23 69c78 0 129 58 145 162l67 435h-63l11 68h62l11 73c20 135 129 188 229 188c93 0 178 -45 178 -113c0 -113 -162 -187 -162 -253c0 -72 130 -129 130 -231
c0 -89 -78 -169 -199 -169c-69 0 -114 36 -114 36l22 72s41 -40 96 -40c47 0 108 20 108 82c0 72 -127 123 -127 211c0 129 159 181 159 283z" />
    <glyph glyph-name="registered" unicode="&#xae;" horiz-adv-x="790" 
d="M564 156h-80l-91 129h-28v-87c0 -6 1 -14 5 -42h-74v299l-6 53h108c63 0 122 -36 122 -108c0 -40 -22 -80 -67 -100zM389 325c31 0 62 37 62 75c0 39 -31 66 -62 66h-24v-141h24zM735 341c0 -209 -141 -354 -356 -354c-190 0 -324 141 -324 325c0 208 146 352 365 352
c184 0 315 -140 315 -323zM673 328c0 166 -114 285 -274 285c-153 0 -280 -121 -280 -289c0 -162 121 -284 282 -284c147 0 272 121 272 288z" />
    <glyph glyph-name="copyright" unicode="&#xa9;" horiz-adv-x="790" 
d="M524 464l-37 -52c-25 35 -59 44 -86 44c-61 0 -94 -57 -94 -124c0 -64 31 -128 99 -128c57 0 106 54 106 54l12 -66s-51 -51 -143 -51c-96 0 -148 91 -148 180c0 102 58 195 170 195c54 0 93 -19 121 -52zM735 341c0 -209 -141 -354 -356 -354c-190 0 -324 141 -324 325
c0 208 146 352 365 352c184 0 315 -140 315 -323zM673 328c0 166 -114 285 -274 285c-153 0 -280 -121 -280 -289c0 -162 121 -284 282 -284c147 0 272 121 272 288z" />
    <glyph glyph-name="trademark" unicode="&#x2122;" horiz-adv-x="802" 
d="M64 657l9 48h309l-9 -48h-120l-55 -282l-3 -46h-77l64 328h-118zM543 361l-102 190l-34 -176l-3 -46h-62l63 322l3 54h39l120 -235l195 235h43l-64 -330l-3 -46h-77l44 225z" />
    <glyph glyph-name="acute" unicode="&#xb4;" horiz-adv-x="338" 
d="M199 724h110l-194 -163l-53 20z" />
    <glyph glyph-name="dieresis" unicode="&#xa8;" horiz-adv-x="384" 
d="M152 631c0 -31 -23 -55 -50 -55s-50 24 -50 55c0 30 23 55 50 55s50 -25 50 -55zM336 631c0 -31 -23 -55 -50 -55s-50 24 -50 55c0 30 23 55 50 55s50 -25 50 -55z" />
    <glyph glyph-name="notequal" unicode="&#x2260;" horiz-adv-x="480" 
 />
    <glyph glyph-name="AE" unicode="&#xc6;" horiz-adv-x="754" 
d="M307 0l34 176h-205l-115 -176h-85l436 658h372l-13 -72h-220l-42 -214h203l-34 -72h-183l-43 -228h242l-35 -72h-312zM354 246l63 320l2 41l-238 -361h173z" />
    <glyph glyph-name="Oslash" unicode="&#xd8;" horiz-adv-x="649" 
d="M621 414c0 -225 -125 -427 -339 -427c-47 0 -86 11 -117 28l-43 -68l-51 15l53 85c-56 54 -76 136 -76 196c0 248 144 427 343 427c40 0 75 -9 105 -24l42 67l55 -15l-52 -83c53 -47 80 -121 80 -201zM292 60c99 0 235 118 235 342c0 53 -13 99 -36 134l-281 -449
c22 -17 50 -27 82 -27zM141 262c0 -52 12 -99 33 -134l279 448c-22 15 -47 23 -75 23c-137 0 -237 -184 -237 -337z" />
    <glyph glyph-name="infinity" unicode="&#x221e;" horiz-adv-x="619" 
 />
    <glyph glyph-name="plusminus" unicode="&#xb1;" horiz-adv-x="471" 
d="M201 140v146h-143v74h143v149l70 -19v-130h149l-20 -74h-129v-146h-70zM87 69h310l-20 -69h-290v69z" />
    <glyph glyph-name="lessequal" unicode="&#x2264;" horiz-adv-x="225" 
 />
    <glyph glyph-name="greaterequal" unicode="&#x2265;" horiz-adv-x="225" 
 />
    <glyph glyph-name="yen" unicode="&#xa5;" horiz-adv-x="508" 
d="M88 348h97l-79 239l-39 71h109l82 -247l7 -40l27 42l180 245h91l-234 -310h110l-28 -64h-120l-16 -83h135l-28 -64h-119l-12 -62l-4 -75h-100l26 137h-127l13 64h126l16 83h-126z" />
    <glyph glyph-name="mu" unicode="&#xb5;" horiz-adv-x="519" 
 />
    <glyph glyph-name="mu" unicode="&#x3bc;" horiz-adv-x="519" 
 />
    <glyph glyph-name="partialdiff" unicode="&#x2202;" horiz-adv-x="12" 
d="M12 694v-694h-12v694h12z" />
    <glyph glyph-name="summation" unicode="&#x2211;" horiz-adv-x="474" 
 />
    <glyph glyph-name="product" unicode="&#x220f;" horiz-adv-x="424" 
 />
    <glyph glyph-name="pi" unicode="&#x3c0;" horiz-adv-x="424" 
 />
    <glyph glyph-name="integral" unicode="&#x222b;" horiz-adv-x="330" 
 />
    <glyph glyph-name="ordfeminine" unicode="&#xaa;" horiz-adv-x="405" 
d="M280 402l40 214c-10 1 -34 5 -42 5c-63 0 -127 -96 -127 -213c0 -28 7 -69 33 -69c50 0 96 63 96 63zM300 280c-17 14 -27 37 -27 56c-20 -21 -60 -55 -110 -55c-49 0 -93 40 -93 119c0 134 82 269 202 269c60 0 132 -11 132 -11s-57 -296 -57 -302c0 -23 9 -47 29 -65z
" />
    <glyph glyph-name="ordmasculine" unicode="&#xba;" horiz-adv-x="442" 
d="M229 335c47 0 108 61 108 181c0 57 -25 105 -65 105c-62 0 -108 -97 -108 -180c0 -60 20 -106 65 -106zM291 673c69 0 123 -54 123 -146c0 -129 -74 -244 -200 -244c-101 0 -125 88 -125 145c0 142 80 245 202 245z" />
    <glyph glyph-name="Omega" unicode="&#x3a9;" horiz-adv-x="368" 
 />
    <glyph glyph-name="Omega" unicode="&#x2126;" horiz-adv-x="368" 
 />
    <glyph glyph-name="ae" unicode="&#xe6;" horiz-adv-x="733" 
d="M707 398c0 -132 -148 -185 -291 -185v-10c0 -74 33 -139 116 -139c85 0 149 76 149 76v-83s-52 -70 -175 -70c-91 0 -145 52 -167 123c-45 -48 -106 -123 -188 -123c-61 0 -113 54 -113 159c0 179 104 361 260 361c68 0 124 -14 154 -14c39 0 98 14 125 14
c88 0 130 -47 130 -109zM328 193c0 92 31 178 86 238c-55 5 -96 13 -109 13c-92 0 -176 -131 -176 -288c0 -46 10 -94 50 -94c41 0 128 90 149 113v18zM564 442c-77 0 -126 -86 -142 -175c25 1 194 14 194 121c0 23 -9 54 -52 54z" />
    <glyph glyph-name="oslash" unicode="&#xf8;" horiz-adv-x="496" 
d="M299 507c24 0 46 -6 67 -16l64 103l55 -15l-77 -122c30 -33 48 -82 48 -145c0 -170 -97 -325 -260 -325c-29 0 -53 6 -73 16l-74 -118l-51 15l84 135c-35 41 -45 101 -45 145c0 189 105 327 262 327zM216 54c67 0 152 82 152 244c0 27 -4 53 -13 75l-190 -303
c14 -11 31 -16 51 -16zM122 198c0 -30 4 -58 12 -80l189 304c-14 12 -30 19 -49 19c-87 0 -152 -133 -152 -243z" />
    <glyph glyph-name="questiondown" unicode="&#xbf;" horiz-adv-x="415" 
d="M295 494l72 -31c0 -3 1 -6 1 -10c0 -142 -250 -256 -250 -396c0 -45 46 -71 86 -71c47 0 107 42 108 45l21 -83c0 -5 -81 -43 -145 -43c-84 0 -167 52 -167 145c0 162 276 297 276 425c0 6 0 13 -2 19zM269 608c0 35 28 63 62 63s62 -28 62 -63c0 -33 -28 -61 -62 -61
s-62 28 -62 61z" />
    <glyph glyph-name="exclamdown" unicode="&#xa1;" horiz-adv-x="264" 
d="M135 604c0 35 28 63 62 63s62 -28 62 -63c0 -33 -28 -61 -62 -61s-62 28 -62 61zM16 -102l130 578l64 -8l-75 -468l-5 -90z" />
    <glyph glyph-name="logicalnot" unicode="&#xac;" horiz-adv-x="535" 
 />
    <glyph glyph-name="radical" unicode="&#x221a;" horiz-adv-x="225" 
 />
    <glyph glyph-name="florin" unicode="&#x192;" horiz-adv-x="483" 
d="M439 492l-44 -68h-101l-61 -434c-19 -137 -117 -230 -210 -231l-24 69c78 0 132 57 146 162l61 434h-69l14 68h63l10 73c19 139 111 189 188 189c38 0 76 -13 108 -34l-48 -69c-19 17 -42 24 -66 24c-38 0 -79 -31 -89 -92l-15 -91h137z" />
    <glyph glyph-name="approxequal" unicode="&#x2248;" horiz-adv-x="669" 
 />
    <glyph glyph-name="Delta" unicode="&#x394;" horiz-adv-x="669" 
 />
    <glyph glyph-name="Delta" unicode="&#x2206;" horiz-adv-x="669" 
 />
    <glyph glyph-name="guillemotleft" unicode="&#xab;" horiz-adv-x="618" 
d="M354 412l-206 -166l141 -164l-51 -64l-198 229l287 229zM583 412l-206 -166l141 -164l-51 -64l-198 229l287 229z" />
    <glyph glyph-name="guillemotright" unicode="&#xbb;" horiz-adv-x="619" 
d="M469 246l-140 166l51 64l199 -229l-288 -229l-27 64zM240 246l-140 166l51 64l199 -229l-288 -229l-27 64z" />
    <glyph glyph-name="ellipsis" unicode="&#x2026;" horiz-adv-x="663" 
d="M184 41c0 -30 -24 -54 -53 -54c-30 0 -54 24 -54 54c0 29 24 53 54 53c29 0 53 -24 53 -53zM389 41c0 -30 -24 -54 -53 -54c-30 0 -54 24 -54 54c0 29 24 53 54 53c29 0 53 -24 53 -53zM589 41c0 -30 -24 -54 -53 -54c-30 0 -54 24 -54 54c0 29 24 53 54 53
c29 0 53 -24 53 -53z" />
    <glyph glyph-name="Agrave" unicode="&#xc0;" horiz-adv-x="549" 
d="M-62 0l381 659l63 12l95 -561l28 -110h-101l-28 172h-249l-98 -172h-91zM298 474l-129 -226h194l-39 226l-4 45zM199 875h110l111 -143l-57 -20z" />
    <glyph glyph-name="Atilde" unicode="&#xc3;" horiz-adv-x="549" 
d="M-62 0l381 659l63 12l95 -561l28 -110h-101l-28 172h-249l-98 -172h-91zM298 474l-129 -226h194l-39 226l-4 45zM472 823l40 -26c-26 -40 -45 -71 -109 -71c-60 0 -84 36 -122 36c-15 0 -32 -6 -53 -33l-40 26c26 40 45 71 109 71c54 0 82 -38 121 -38c17 0 38 6 54 35z
" />
    <glyph glyph-name="Otilde" unicode="&#xd5;" horiz-adv-x="649" 
d="M377 597c-99 0 -236 -118 -236 -342c0 -114 60 -197 150 -197c137 0 237 184 237 337c0 113 -54 202 -151 202zM48 243c0 225 125 427 339 427c179 0 234 -157 234 -256c0 -248 -144 -427 -343 -427c-151 0 -230 119 -230 256zM546 823l40 -26c-26 -40 -45 -71 -109 -71
c-60 0 -84 36 -122 36c-15 0 -32 -6 -53 -33l-40 26c26 40 45 71 109 71c54 0 82 -38 121 -38c17 0 38 6 54 35z" />
    <glyph glyph-name="OE" unicode="&#x152;" horiz-adv-x="821" 
d="M811 658l-13 -72h-220l-42 -214h203l-34 -72h-183l-43 -228h242l-35 -72h-404c-179 0 -234 144 -234 243c0 248 134 415 353 415h410zM292 60h93l98 506v33h-105c-137 0 -237 -184 -237 -337c0 -113 54 -202 151 -202z" />
    <glyph glyph-name="oe" unicode="&#x153;" horiz-adv-x="769" 
d="M743 398c0 -132 -148 -185 -291 -185v-10c0 -74 33 -139 116 -139c85 0 149 76 149 76v-83s-52 -70 -175 -70c-79 0 -130 39 -157 96c-44 -58 -108 -96 -188 -96c-129 0 -159 118 -159 193c0 189 105 327 262 327c59 0 109 -32 136 -91c43 55 104 91 177 91
c88 0 130 -47 130 -109zM217 54c67 0 152 82 152 244c0 77 -35 143 -94 143c-87 0 -152 -133 -152 -243c0 -82 29 -144 94 -144zM598 442c-77 0 -126 -86 -142 -175c25 1 194 14 194 121c0 23 -9 54 -52 54z" />
    <glyph glyph-name="endash" unicode="&#x2013;" horiz-adv-x="452" 
d="M31 284h397l-20 -74h-377v74z" />
    <glyph glyph-name="emdash" unicode="&#x2014;" horiz-adv-x="679" 
d="M31 284h623l-20 -74h-603v74z" />
    <glyph glyph-name="quotedblleft" unicode="&#x201c;" horiz-adv-x="427" 
d="M233 672l28 -35c-27 -23 -75 -84 -75 -121c0 -13 1 -28 21 -33c0 -37 -29 -63 -64 -63c-29 0 -51 26 -51 61c0 61 61 140 141 191zM410 672l28 -35c-27 -23 -75 -84 -75 -121c0 -13 1 -28 21 -33c0 -37 -29 -63 -64 -63c-29 0 -51 26 -51 61c0 61 61 140 141 191z" />
    <glyph glyph-name="quotedblright" unicode="&#x201d;" horiz-adv-x="425" 
d="M110 420l-28 35c27 23 75 84 75 121c0 13 -1 28 -21 33c0 37 29 63 64 63c29 0 51 -26 51 -61c0 -61 -61 -140 -141 -191zM285 420l-28 35c27 23 75 84 75 121c0 13 -1 28 -21 33c0 37 29 63 64 63c29 0 51 -26 51 -61c0 -61 -61 -140 -141 -191z" />
    <glyph glyph-name="quoteleft" unicode="&#x2018;" horiz-adv-x="250" 
d="M233 672l28 -35c-27 -23 -75 -84 -75 -121c0 -13 1 -28 21 -33c0 -37 -29 -63 -64 -63c-29 0 -51 26 -51 61c0 61 61 140 141 191z" />
    <glyph glyph-name="quoteright" unicode="&#x2019;" horiz-adv-x="250" 
d="M110 420l-28 35c27 23 75 84 75 121c0 13 -1 28 -21 33c0 37 29 63 64 63c29 0 51 -26 51 -61c0 -61 -61 -140 -141 -191z" />
    <glyph glyph-name="divide" unicode="&#xf7;" horiz-adv-x="473" 
d="M87 285h310l-20 -69h-290v69zM295 407c0 -35 -27 -63 -60 -63s-60 28 -60 63c0 33 27 61 60 61s60 -28 60 -61zM295 105c0 -35 -27 -63 -60 -63s-60 28 -60 63c0 33 27 61 60 61s60 -28 60 -61z" />
    <glyph glyph-name="lozenge" unicode="&#x25ca;" horiz-adv-x="476" 
 />
    <glyph glyph-name="ydieresis" unicode="&#xff;" horiz-adv-x="450" 
d="M-104 -152c15 -6 31 -10 49 -10c50 0 101 29 150 101l44 65l-8 21l-54 384l-28 83l98 13l50 -345l1 -72l33 69l107 179c41 69 24 121 5 156l91 13c34 -74 10 -137 -32 -205l-244 -394c-61 -98 -146 -149 -214 -149c-17 0 -34 4 -50 11zM238 630c0 -31 -23 -55 -50 -55
s-50 24 -50 55c0 30 23 55 50 55s50 -25 50 -55zM422 630c0 -31 -23 -55 -50 -55s-50 24 -50 55c0 30 23 55 50 55s50 -25 50 -55z" />
    <glyph glyph-name="Ydieresis" unicode="&#x178;" horiz-adv-x="508" 
d="M294 297l-43 -222l-4 -75h-100l56 290l-97 297l-39 71h109l82 -247l7 -40l27 42l176 245h95zM293 782c0 -31 -23 -55 -50 -55s-50 24 -50 55c0 30 23 55 50 55s50 -25 50 -55zM477 782c0 -31 -23 -55 -50 -55s-50 24 -50 55c0 30 23 55 50 55s50 -25 50 -55z" />
    <glyph glyph-name="fraction" unicode="&#x2044;" horiz-adv-x="510" 
d="M531 650l-450 -650h-85l466 677z" />
    <glyph glyph-name="Euro" unicode="&#x20ac;" horiz-adv-x="601" 
d="M39 435h64c70 151 206 238 345 238c56 0 121 -14 159 -42l-38 -74c-41 37 -94 47 -142 47c-94 0 -188 -69 -241 -169h317l-37 -69h-310c-8 -27 -15 -55 -18 -83h285l-36 -69h-249c5 -102 72 -157 180 -157c53 0 123 27 175 64l-15 -84c-62 -35 -124 -50 -186 -50
c-129 0 -228 84 -233 227h-62l12 69h54c2 26 9 53 17 83h-55z" />
    <glyph glyph-name="guilsinglleft" unicode="&#x2039;" horiz-adv-x="389" 
d="M354 412l-206 -166l141 -164l-51 -64l-198 229l287 229z" />
    <glyph glyph-name="guilsinglright" unicode="&#x203a;" horiz-adv-x="390" 
d="M240 246l-140 166l51 64l199 -229l-288 -229l-27 64z" />
    <glyph glyph-name="daggerdbl" unicode="&#x2021;" horiz-adv-x="487" 
d="M175 -245h-83l48 245h-129l13 68h129l69 356h-129l14 68h129l30 158l86 11l-33 -169h163l-44 -68h-133l-69 -356h150l-43 -68h-120z" />
    <glyph glyph-name="periodcentered" unicode="&#xb7;" horiz-adv-x="258" 
d="M186 245c0 -35 -27 -63 -60 -63s-60 28 -60 63c0 33 27 61 60 61s60 -28 60 -61z" />
    <glyph glyph-name="quotesinglbase" unicode="&#x201a;" horiz-adv-x="250" 
d="M23 -139l-28 35c27 23 75 84 75 121c0 13 -1 28 -21 33c0 37 29 63 64 63c29 0 51 -26 51 -61c0 -61 -61 -140 -141 -191z" />
    <glyph glyph-name="quotedblbase" unicode="&#x201e;" horiz-adv-x="425" 
d="M23 -139l-28 35c27 23 75 84 75 121c0 13 -1 28 -21 33c0 37 29 63 64 63c29 0 51 -26 51 -61c0 -61 -61 -140 -141 -191zM198 -139l-28 35c27 23 75 84 75 121c0 13 -1 28 -21 33c0 37 29 63 64 63c29 0 51 -26 51 -61c0 -61 -61 -140 -141 -191z" />
    <glyph glyph-name="perthousand" unicode="&#x2030;" horiz-adv-x="1151" 
d="M381 507c0 -82 -72 -150 -153 -150c-79 0 -150 68 -150 150s71 150 150 150c81 0 153 -68 153 -150zM322 509c0 49 -46 90 -93 90c-50 0 -92 -41 -92 -90c0 -46 39 -97 92 -97c59 0 93 51 93 97zM756 137c0 -82 -72 -150 -153 -150c-79 0 -150 68 -150 150
s71 150 150 150c81 0 153 -68 153 -150zM697 139c0 49 -46 90 -93 90c-50 0 -92 -41 -92 -90c0 -46 39 -97 92 -97c59 0 93 51 93 97zM1109 137c0 -82 -72 -150 -153 -150c-79 0 -150 68 -150 150s71 150 150 150c81 0 153 -68 153 -150zM1050 139c0 49 -46 90 -93 90
c-50 0 -92 -41 -92 -90c0 -46 39 -97 92 -97c59 0 93 51 93 97zM733 647l-564 -647h-84l587 674z" />
    <glyph glyph-name="Acircumflex" unicode="&#xc2;" horiz-adv-x="549" 
d="M-62 0l381 659l63 12l95 -561l28 -110h-101l-28 172h-249l-98 -172h-91zM298 474l-129 -226h194l-39 226l-4 45zM326 875h62l111 -143l-55 -20l-94 93l-110 -93l-51 20z" />
    <glyph glyph-name="Ecircumflex" unicode="&#xca;" horiz-adv-x="497" 
d="M50 0l110 566l4 92h323l-13 -72h-220l-42 -214h203l-34 -72h-183l-43 -228h242l-35 -72h-312zM307 875h62l111 -143l-55 -20l-94 93l-110 -93l-51 20z" />
    <glyph glyph-name="Aacute" unicode="&#xc1;" horiz-adv-x="549" 
d="M-62 0l381 659l63 12l95 -561l28 -110h-101l-28 172h-249l-98 -172h-91zM298 474l-129 -226h194l-39 226l-4 45zM407 875h110l-194 -163l-53 20z" />
    <glyph glyph-name="Edieresis" unicode="&#xcb;" horiz-adv-x="497" 
d="M50 0l110 566l4 92h323l-13 -72h-220l-42 -214h203l-34 -72h-183l-43 -228h242l-35 -72h-312zM289 782c0 -31 -23 -55 -50 -55s-50 24 -50 55c0 30 23 55 50 55s50 -25 50 -55zM473 782c0 -31 -23 -55 -50 -55s-50 24 -50 55c0 30 23 55 50 55s50 -25 50 -55z" />
    <glyph glyph-name="Egrave" unicode="&#xc8;" horiz-adv-x="497" 
d="M50 0l110 566l4 92h323l-13 -72h-220l-42 -214h203l-34 -72h-183l-43 -228h242l-35 -72h-312zM180 875h110l111 -143l-57 -20z" />
    <glyph glyph-name="Iacute" unicode="&#xcd;" horiz-adv-x="295" 
d="M267 658l-113 -583l-4 -75h-100l110 566l4 92h103zM283 875h110l-194 -163l-53 20z" />
    <glyph glyph-name="Icircumflex" unicode="&#xce;" horiz-adv-x="295" 
d="M267 658l-113 -583l-4 -75h-100l110 566l4 92h103zM202 875h62l111 -143l-55 -20l-94 93l-110 -93l-51 20z" />
    <glyph glyph-name="Idieresis" unicode="&#xcf;" horiz-adv-x="295" 
d="M267 658l-113 -583l-4 -75h-100l110 566l4 92h103zM184 782c0 -31 -23 -55 -50 -55s-50 24 -50 55c0 30 23 55 50 55s50 -25 50 -55zM368 782c0 -31 -23 -55 -50 -55s-50 24 -50 55c0 30 23 55 50 55s50 -25 50 -55z" />
    <glyph glyph-name="Igrave" unicode="&#xcc;" horiz-adv-x="295" 
d="M267 658l-113 -583l-4 -75h-100l110 566l4 92h103zM75 875h110l111 -143l-57 -20z" />
    <glyph glyph-name="Oacute" unicode="&#xd3;" horiz-adv-x="649" 
d="M377 597c-99 0 -236 -118 -236 -342c0 -114 60 -197 150 -197c137 0 237 184 237 337c0 113 -54 202 -151 202zM48 243c0 225 125 427 339 427c179 0 234 -157 234 -256c0 -248 -144 -427 -343 -427c-151 0 -230 119 -230 256zM481 875h110l-194 -163l-53 20z" />
    <glyph glyph-name="Ocircumflex" unicode="&#xd4;" horiz-adv-x="649" 
d="M377 597c-99 0 -236 -118 -236 -342c0 -114 60 -197 150 -197c137 0 237 184 237 337c0 113 -54 202 -151 202zM48 243c0 225 125 427 339 427c179 0 234 -157 234 -256c0 -248 -144 -427 -343 -427c-151 0 -230 119 -230 256zM400 875h62l111 -143l-55 -20l-94 93
l-110 -93l-51 20z" />
    <glyph glyph-name="apple" horiz-adv-x="1019" 
d="M984 418v-252l-112 -66v-138l-241 -128l-120 64l-122 -64l-241 128v138l-113 66v252l113 65v137l241 129l122 -65l120 65l241 -129v-137zM938 178v227l-102 59v124l-218 115l-107 -59l-110 59l-217 -115v-124l-103 -59v-227l103 -58v-125l217 -116l110 60l107 -60
l218 116v125zM895 393v-203l-92 -54v-111l-195 -104l-97 53l-100 -53l-194 104v111l-91 54v203l91 54v111l194 104l100 -54l97 54l195 -104v-111zM368 530l13 -92v-386h107l-17 58v151h169l20 74h-189v121h219v74h-322z" />
    <glyph glyph-name="Ograve" unicode="&#xd2;" horiz-adv-x="649" 
d="M377 597c-99 0 -236 -118 -236 -342c0 -114 60 -197 150 -197c137 0 237 184 237 337c0 113 -54 202 -151 202zM48 243c0 225 125 427 339 427c179 0 234 -157 234 -256c0 -248 -144 -427 -343 -427c-151 0 -230 119 -230 256zM273 875h110l111 -143l-57 -20z" />
    <glyph glyph-name="Uacute" unicode="&#xda;" horiz-adv-x="663" 
d="M560 658h94l-77 -395c-31 -158 -125 -276 -277 -276c-227 0 -232 171 -206 316l48 263l5 92h104l-66 -358c-18 -94 -30 -240 121 -240c99 0 168 91 188 192l61 314zM468 875h110l-194 -163l-53 20z" />
    <glyph glyph-name="Ucircumflex" unicode="&#xdb;" horiz-adv-x="663" 
d="M560 658h94l-77 -395c-31 -158 -125 -276 -277 -276c-227 0 -232 171 -206 316l48 263l5 92h104l-66 -358c-18 -94 -30 -240 121 -240c99 0 168 91 188 192l61 314zM387 875h62l111 -143l-55 -20l-94 93l-110 -93l-51 20z" />
    <glyph glyph-name="Ugrave" unicode="&#xd9;" horiz-adv-x="663" 
d="M560 658h94l-77 -395c-31 -158 -125 -276 -277 -276c-227 0 -232 171 -206 316l48 263l5 92h104l-66 -358c-18 -94 -30 -240 121 -240c99 0 168 91 188 192l61 314zM260 875h110l111 -143l-57 -20z" />
    <glyph glyph-name="dotlessi" unicode="&#x131;" horiz-adv-x="261" 
d="M224 503l-84 -428l-4 -75h-94l78 400l5 92z" />
    <glyph glyph-name="circumflex" unicode="&#x2c6;" horiz-adv-x="402" 
d="M176 724h62l111 -143l-55 -20l-94 93l-110 -93l-51 20z" />
    <glyph glyph-name="tilde" unicode="&#x2dc;" horiz-adv-x="380" 
d="M319 672l40 -26c-26 -40 -45 -71 -109 -71c-60 0 -84 36 -122 36c-15 0 -32 -6 -53 -33l-40 26c26 40 45 71 109 71c54 0 82 -38 121 -38c17 0 38 6 54 35z" />
    <glyph glyph-name="macron" unicode="&#xaf;" horiz-adv-x="335" 
d="M53 665h247l-27 -74h-227z" />
    <glyph glyph-name="breve" unicode="&#x2d8;" horiz-adv-x="402" 
d="M198 627c64 0 111 97 111 97l53 -20s-52 -143 -170 -143s-144 143 -144 143l57 20s29 -97 93 -97z" />
    <glyph glyph-name="dotaccent" unicode="&#x2d9;" horiz-adv-x="186" 
d="M147 626c0 -30 -24 -54 -53 -54c-30 0 -54 24 -54 54c0 29 24 53 54 53c29 0 53 -24 53 -53z" />
    <glyph glyph-name="ring" unicode="&#x2da;" horiz-adv-x="520" 
d="M346 650c0 -48 -43 -88 -91 -88c-47 0 -89 40 -89 88s42 88 89 88c48 0 91 -40 91 -88zM309 651c0 29 -26 53 -53 53c-29 0 -53 -24 -53 -53c0 -27 22 -57 53 -57c34 0 53 30 53 57z" />
    <glyph glyph-name="cedilla" unicode="&#xb8;" horiz-adv-x="402" 
d="M146 -58l14 51h29c27 -39 101 -65 101 -133c0 -50 -48 -95 -124 -95c-33 0 -68 11 -94 31l29 49c12 -11 40 -23 67 -23c33 0 54 11 54 37c0 30 -44 49 -76 83z" />
    <glyph glyph-name="hungarumlaut" unicode="&#x2dd;" horiz-adv-x="585" 
d="M199 724h110l-194 -163l-53 20zM382 724h110l-194 -163l-53 20z" />
    <glyph glyph-name="ogonek" unicode="&#x2db;" horiz-adv-x="276" 
d="M155 0h64s-103 -88 -107 -139c-4 -40 69 -38 96 -34l-6 -59c-5 -1 -13 -1 -19 -1c-101 0 -142 27 -138 82c7 74 110 151 110 151z" />
    <glyph glyph-name="caron" unicode="&#x2c7;" horiz-adv-x="402" 
d="M225 561h-66l-111 143l57 20l93 -93l111 93l53 -20z" />
    <glyph glyph-name="DLE" horiz-adv-x="0" 
 />
    <glyph glyph-name="one.t" 
d="M53 0l12 66h105l76 423l-102 -32l-12 61l217 71l-95 -523h115l-21 -66h-295z" />
    <glyph glyph-name="B" unicode="B" horiz-adv-x="536" 
d="M202 319l-48 -247h63c116 0 165 71 165 150c0 56 -36 97 -133 97h-47zM494 528c0 -81 -67 -136 -109 -160c51 -21 92 -71 92 -143c0 -134 -104 -225 -286 -225h-141l110 566l4 92l154 6c125 5 176 -61 176 -136zM216 392h49c40 0 76 -8 76 -8c33 33 65 90 65 132
c0 39 -27 81 -100 77l-51 -3z" />
    <glyph glyph-name="C" unicode="C" horiz-adv-x="605" 
d="M615 606l-55 -63s-59 53 -149 53c-138 0 -260 -149 -260 -332c0 -101 57 -202 179 -202c66 0 135 36 195 98l6 -93c-73 -58 -144 -80 -223 -80c-150 0 -249 115 -249 267c0 234 145 417 360 417c123 0 196 -65 196 -65z" />
    </font>
</defs>
</svg>
