<?xml version="1.0" standalone="no"?>
<!DOCTYPE svg PUBLIC "-//W3C//DTD SVG 1.1//EN" "http://www.w3.org/Graphics/SVG/1.1/DTD/svg11.dtd" >
<svg>
<metadata>
Created by FontForge 20090914 at Tue Mar  1 19:22:30 2011
 By apache
Copyright (c) 2007 by Jos Buivenga. All rights reserved.
</metadata>
<defs>
<font id="FontinSans-BoldItalic" horiz-adv-x="480" >
  <font-face 
    font-family="Fontin Sans Rg"
    font-weight="700"
    font-style="italic"
    font-stretch="normal"
    units-per-em="1000"
    panose-1="2 0 0 0 0 0 0 0 0 0"
    ascent="756"
    descent="-244"
    x-height="505"
    cap-height="668"
    bbox="-152 -254 1176 879"
    underline-thickness="50"
    underline-position="-50"
    unicode-range="U+0020-U+FB04"
  />
<missing-glyph horiz-adv-x="500" 
 />
    <glyph glyph-name="fi" unicode="fi" horiz-adv-x="598" 
d="M242 505h202l124 13l-85 -433l-4 -85h-137l78 396v17h-191l-62 -414c-21 -142 -107 -240 -242 -241l-31 93c80 0 135 59 149 152l61 410h-63l14 92h62l9 52c25 146 150 207 266 207c119 0 195 -75 195 -75l-58 -101s-76 79 -141 79c-84 0 -128 -52 -137 -106z" />
    <glyph glyph-name="fl" unicode="fl" horiz-adv-x="581" 
d="M604 716l-123 -631l-5 -85h-135l125 644s-49 23 -78 23c-84 0 -128 -52 -137 -106l-9 -56h117l-45 -92h-85l-62 -414c-21 -142 -107 -240 -242 -241l-31 93c80 0 135 59 149 152l61 410h-63l14 92h62l9 52c25 146 150 207 266 207c57 0 137 -33 212 -48z" />
    <glyph glyph-name="ffi" unicode="ffi" horiz-adv-x="914" 
d="M558 505h202l124 13l-85 -433l-4 -85h-137l78 396v17h-191l-62 -414c-21 -142 -107 -240 -242 -241l-31 93c80 0 135 59 149 152l61 410h-191l-62 -414c-21 -142 -107 -240 -242 -241l-31 93c80 0 135 59 149 152l61 410h-63l14 92h62l9 52c25 146 150 207 266 207
c67 0 121 -24 155 -45c48 31 105 45 161 45c119 0 195 -75 195 -75l-58 -101s-76 79 -141 79c-84 0 -128 -52 -137 -106zM442 557c5 30 14 57 27 80c-25 17 -53 30 -81 30c-84 0 -128 -52 -137 -106l-9 -56h191z" />
    <glyph glyph-name="ffl" unicode="ffl" horiz-adv-x="897" 
d="M920 716l-123 -631l-5 -85h-135l125 644s-49 23 -78 23c-84 0 -128 -52 -137 -106l-9 -56h117l-45 -92h-85l-62 -414c-21 -142 -107 -240 -242 -241l-31 93c80 0 135 59 149 152l61 410h-191l-62 -414c-21 -142 -107 -240 -242 -241l-31 93c80 0 135 59 149 152l61 410
h-63l14 92h62l9 52c25 146 150 207 266 207c67 0 121 -24 155 -45c48 31 105 45 161 45c57 0 137 -33 212 -48zM442 557c5 30 14 57 27 80c-25 17 -53 30 -81 30c-84 0 -128 -52 -137 -106l-9 -56h191z" />
    <glyph glyph-name="fj" unicode="fj" horiz-adv-x="604" 
d="M576 517l-103 -530c-27 -139 -124 -229 -247 -230l-30 102c82 0 136 36 154 132l79 411v11h-200l-62 -414c-21 -142 -107 -240 -242 -241l-31 93c80 0 135 59 149 152l61 410h-63l14 92h62l9 52c25 146 150 207 266 207c119 0 195 -75 195 -75l-58 -101s-76 79 -141 79
c-84 0 -128 -52 -137 -106l-9 -56h220z" />
    <glyph glyph-name="ff" unicode="ff" horiz-adv-x="632" 
d="M544 413l-61 -414c-21 -141 -108 -240 -243 -241l-33 93c80 0 138 59 152 152l61 410h-191l-62 -414c-21 -142 -107 -240 -242 -241l-31 93c80 0 135 59 149 152l61 410h-63l14 92h62l9 52c25 146 150 207 266 207c57 0 104 -17 137 -35c33 24 72 35 111 35
c71 0 128 -39 128 -39l-54 -98s-35 30 -77 30c-29 0 -59 -22 -68 -76l-12 -76h142l-48 -92h-107zM251 561l-9 -56h191l10 61c4 28 11 53 20 74c-24 15 -49 27 -75 27c-84 0 -128 -52 -137 -106z" />
    <glyph glyph-name=".notdef" horiz-adv-x="500" 
 />
    <glyph glyph-name="B" unicode="B" horiz-adv-x="543" 
d="M226 310l-40 -213h50c86 0 131 59 131 128c0 47 -36 85 -107 85h-34zM516 528c0 -75 -59 -133 -107 -157c49 -27 88 -81 88 -140c0 -121 -103 -231 -288 -231h-174l110 568l4 100l183 10c119 7 184 -68 184 -150zM244 404h39c16 0 39 -2 63 -7c24 31 44 82 44 119
s-26 65 -73 63l-39 -2z" />
    <glyph glyph-name="C" unicode="C" horiz-adv-x="617" 
d="M630 611l-62 -90c0 -1 -77 60 -152 60c-127 0 -240 -135 -240 -311c0 -95 51 -181 159 -181c123 0 212 110 212 110l9 -121s-93 -91 -243 -91c-162 0 -270 114 -270 273c0 241 154 418 381 418c106 0 206 -67 206 -67z" />
    <glyph glyph-name="D" unicode="D" horiz-adv-x="671" 
d="M152 668h266c135 0 230 -105 230 -262c0 -219 -144 -406 -374 -406h-236l110 566zM279 571l-92 -474h99c120 0 228 131 228 297c0 88 -46 177 -138 177h-97z" />
    <glyph glyph-name="E" unicode="E" horiz-adv-x="505" 
d="M35 0l110 566l4 102h361l-17 -99h-216l-36 -177h202l-37 -99h-184l-36 -194h242l-39 -99h-354z" />
    <glyph glyph-name="F" unicode="F" horiz-adv-x="485" 
d="M222 293l-40 -208l-4 -85h-143l110 566l4 102h361l-18 -99h-216l-34 -177h202l-38 -99h-184z" />
    <glyph glyph-name="G" unicode="G" horiz-adv-x="662" 
d="M315 -13c-164 0 -272 114 -272 273c0 241 154 418 381 418c106 0 206 -67 206 -67l-62 -90c0 -1 -77 60 -152 60c-127 0 -240 -135 -240 -311c0 -95 51 -181 159 -181c32 0 64 7 91 19l26 134l-3 84h148l-57 -306c-23 0 -46 -6 -69 -11c-45 -10 -103 -22 -156 -22z" />
    <glyph glyph-name="H" unicode="H" horiz-adv-x="734" 
d="M721 668l-114 -583l-4 -85h-143l56 282h-295l-39 -197l-4 -85h-143l111 566l4 102h146l-56 -277h295l36 175l4 102h146z" />
    <glyph glyph-name="I" unicode="I" horiz-adv-x="309" 
d="M296 668l-114 -583l-4 -85h-143l111 568l4 100h146z" />
    <glyph glyph-name="J" unicode="J" horiz-adv-x="332" 
d="M308 668l-120 -620c-23 -118 -112 -247 -261 -247c-39 0 -79 10 -79 10l30 111s27 -11 57 -11c57 0 108 63 123 141l99 514l5 102h146z" />
    <glyph glyph-name="K" unicode="K" horiz-adv-x="606" 
d="M185 86l-5 -86h-141l109 565l6 103h144l-59 -307l207 236l45 71h167l-298 -319l208 -349h-148l-188 326z" />
    <glyph glyph-name="L" unicode="L" horiz-adv-x="445" 
d="M38 0l110 566l4 102h146l-110 -567h257l-45 -101h-362z" />
    <glyph glyph-name="M" unicode="M" horiz-adv-x="875" 
d="M395 61l-146 267l-26 85l-60 -328l-4 -85h-124l106 566l-4 102h92l205 -410l333 410h94l-114 -583l-4 -85h-141l80 408l-53 -83z" />
    <glyph glyph-name="N" unicode="N" horiz-adv-x="738" 
d="M736 668l-112 -583l-9 -85h-82l-260 376l-37 80l-69 -371l-4 -85h-128l108 565l-10 103h108l257 -390l37 -77l65 365l4 102h132z" />
    <glyph glyph-name="O" unicode="O" horiz-adv-x="659" 
d="M382 582c-91 0 -216 -105 -216 -321c0 -107 52 -177 130 -177c125 0 217 169 217 317c0 106 -47 181 -131 181zM33 249c0 231 132 429 359 429c194 0 254 -154 254 -258c0 -255 -152 -433 -363 -433c-164 0 -250 119 -250 262z" />
    <glyph glyph-name="P" unicode="P" horiz-adv-x="528" 
d="M143 668h206c103 0 194 -72 194 -178c0 -152 -127 -254 -308 -254h-31l-28 -151l-4 -85h-143l110 566zM271 571l-47 -235h43c72 0 140 47 140 147c0 51 -37 88 -89 88h-47z" />
    <glyph glyph-name="Q" unicode="Q" horiz-adv-x="679" 
d="M38 249c0 231 132 429 359 429c194 0 254 -154 254 -258c0 -238 -132 -410 -324 -431c73 -25 153 -65 209 -65c88 0 142 45 142 45l9 -120s-46 -35 -148 -35c-97 0 -215 79 -293 119l-16 60c-126 24 -192 130 -192 256zM387 582c-91 0 -216 -105 -216 -321
c0 -107 52 -177 130 -177c125 0 217 169 217 317c0 106 -47 181 -131 181z" />
    <glyph glyph-name="R" unicode="R" horiz-adv-x="557" 
d="M143 668h206c103 0 194 -72 194 -178c0 -111 -68 -195 -174 -233l164 -257h-152l-136 236h-10h-31l-28 -151l-4 -85h-143l110 566zM271 571l-47 -235h43c72 0 140 47 140 147c0 51 -37 88 -89 88h-47z" />
    <glyph glyph-name="S" unicode="S" horiz-adv-x="465" 
d="M468 645l-45 -98c0 -1 -67 34 -129 34c-51 0 -92 -35 -92 -83c0 -115 217 -144 217 -311c0 -115 -105 -200 -233 -200c-103 0 -185 55 -185 55l16 103s87 -58 163 -58c45 0 109 25 109 89c0 91 -222 139 -222 303c0 120 117 199 233 199c96 0 168 -33 168 -33z" />
    <glyph glyph-name="T" unicode="T" horiz-adv-x="549" 
d="M40 567l20 101h529l-19 -101h-189l-94 -482l-4 -85h-143l110 567h-210z" />
    <glyph glyph-name="U" unicode="U" horiz-adv-x="676" 
d="M550 668h131l-78 -402c-32 -164 -136 -279 -298 -279c-238 0 -253 165 -224 323l46 256l5 102h147l-67 -365c-15 -82 -29 -219 99 -219c87 0 157 81 175 175l59 307z" />
    <glyph glyph-name="V" unicode="V" horiz-adv-x="622" 
d="M672 668l-395 -681l-95 20l-92 537l1 -2l-41 126h155l68 -404l5 -77l32 74l230 407h132z" />
    <glyph glyph-name="W" unicode="W" horiz-adv-x="937" 
d="M983 668l-362 -681l-104 20l-52 302l-187 -322l-95 20l-92 537l1 -2l-41 126h155l68 -404l5 -77l35 74l123 212l-12 71l1 -2l-41 126h155l68 -404l5 -77l32 74l205 407h133z" />
    <glyph glyph-name="X" unicode="X" horiz-adv-x="543" 
d="M326 0l-72 200l-9 36l-20 -34l-141 -202h-137l256 343l-92 253l-49 72h160l69 -187l9 -34l20 34l131 187h135l-242 -331l122 -337h-140z" />
    <glyph glyph-name="Y" unicode="Y" horiz-adv-x="535" 
d="M325 291l-40 -206l-4 -85h-143l57 290l-96 291l-47 87h151l75 -222l8 -42l28 49l151 215h135z" />
    <glyph glyph-name="Z" unicode="Z" horiz-adv-x="571" 
d="M-27 0v35l394 478l52 53h-338l51 102h491v-35l-395 -477l-54 -55h371l-21 -101h-551z" />
    <glyph glyph-name="bracketleft" unicode="[" horiz-adv-x="288" 
d="M361 734l-17 -87h-86l-122 -628h86l-18 -88h-200l156 803h201z" />
    <glyph glyph-name="backslash" unicode="\" horiz-adv-x="356" 
d="M259 -244l-265 901h116l257 -901h-108z" />
    <glyph glyph-name="bracketright" unicode="]" horiz-adv-x="278" 
d="M97 647l17 87h201l-157 -803h-200l18 88h85l122 628h-86z" />
    <glyph glyph-name="asciicircum" unicode="^" horiz-adv-x="634" 
d="M582 320h-113l-154 281l-155 -281h-110l223 388h86z" />
    <glyph glyph-name="underscore" unicode="_" horiz-adv-x="493" 
d="M514 -65l-33 -80h-481v80h514z" />
    <glyph glyph-name="grave" unicode="`" horiz-adv-x="338" 
d="M30 724h149l103 -136l-82 -28z" />
    <glyph glyph-name="a" unicode="a" horiz-adv-x="521" 
d="M306 165l50 266c-16 2 -37 4 -45 4c-76 0 -160 -121 -160 -267c0 -37 10 -82 41 -82c49 0 114 79 114 79zM466 4l-124 -17c-30 22 -40 62 -38 76l1 7s-70 -83 -145 -83c-71 0 -137 53 -137 166c0 185 113 367 281 367c46 0 114 -10 191 -15l-67 -346
c-14 -72 -6 -108 38 -155z" />
    <glyph glyph-name="b" unicode="b" horiz-adv-x="530" 
d="M155 745l144 15l-63 -308s75 68 137 68c72 0 133 -58 133 -171c0 -180 -91 -362 -278 -362c-72 0 -125 34 -189 62l113 594zM217 341l-46 -249c11 -6 32 -16 63 -16c85 0 144 132 144 259c0 61 -23 82 -46 82c-35 0 -115 -76 -115 -76z" />
    <glyph glyph-name="c" unicode="c" horiz-adv-x="451" 
d="M411 178l8 -115s-79 -76 -198 -76c-136 0 -198 99 -198 212c0 204 123 321 260 321c79 0 170 -28 170 -28l-31 -100s-77 35 -125 35c-98 0 -148 -110 -148 -198c0 -71 28 -138 106 -138c77 0 156 87 156 87z" />
    <glyph glyph-name="d" unicode="d" horiz-adv-x="527" 
d="M317 169l49 260c-22 2 -49 4 -68 4c-101 0 -145 -162 -145 -258c0 -62 21 -90 41 -90c44 0 123 84 123 84zM556 760l-117 -601c-14 -72 -6 -108 38 -155l-122 -17c-30 22 -40 62 -38 84l1 8s-76 -92 -155 -92c-71 0 -138 61 -138 174c0 185 93 359 290 359
c18 0 48 -2 68 -4l29 130v99z" />
    <glyph glyph-name="e" unicode="e" horiz-adv-x="459" 
d="M448 398c0 -135 -149 -178 -295 -183c0 -69 38 -123 100 -123c84 0 165 90 165 90l8 -118s-67 -77 -199 -77c-137 0 -198 102 -198 218c0 169 107 314 269 314c102 0 150 -52 150 -121zM162 293c50 6 158 12 158 95c0 30 -17 43 -37 43c-67 0 -104 -75 -121 -138z" />
    <glyph glyph-name="f" unicode="f" horiz-adv-x="316" 
d="M228 413l-61 -414c-21 -141 -108 -240 -243 -241l-33 93c80 0 138 59 152 152l61 410h-63l14 92h62l10 61c24 146 110 198 197 198c71 0 128 -39 128 -39l-54 -98s-35 30 -77 30c-29 0 -59 -22 -68 -76l-12 -76h129l-48 -92h-94z" />
    <glyph glyph-name="g" unicode="g" horiz-adv-x="505" 
d="M321 520c84 0 166 -17 166 -17l-65 -326c-4 -21 -9 -60 -9 -95c0 -43 6 -86 6 -140c0 -116 -119 -185 -244 -185c-161 0 -234 111 -234 111l83 68s53 -86 159 -86c60 0 113 34 113 101c0 15 -10 85 -3 112c0 0 -62 -76 -132 -76c-72 0 -133 58 -133 171
c0 185 96 362 293 362zM290 434c-71 0 -129 -135 -129 -262c0 -61 18 -81 38 -81c40 0 98 76 98 76l50 263c-17 2 -41 4 -57 4z" />
    <glyph glyph-name="h" unicode="h" horiz-adv-x="547" 
d="M299 760l-53 -268l-15 -46c22 21 90 74 166 74c102 0 126 -77 109 -164l-53 -273l-6 -83h-135l62 327c3 14 17 85 -23 85c-53 0 -135 -76 -135 -76l-49 -251l-5 -85h-135l125 645l5 100z" />
    <glyph glyph-name="i" unicode="i" horiz-adv-x="282" 
d="M252 520l-85 -434l-5 -86h-135l78 404l6 101zM143 653c0 39 32 70 70 70c36 0 67 -31 67 -70c0 -37 -31 -67 -67 -67c-38 0 -70 30 -70 67z" />
    <glyph glyph-name="j" unicode="j" horiz-adv-x="288" 
d="M260 517l-103 -530c-27 -139 -124 -229 -247 -230l-30 102c82 0 136 36 154 132l79 411v-1l5 101zM153 653c0 39 32 70 70 70c36 0 67 -31 67 -70c0 -37 -31 -67 -67 -67c-38 0 -70 30 -70 67z" />
    <glyph glyph-name="k" unicode="k" horiz-adv-x="490" 
d="M297 760l-90 -462l92 69c27 21 50 39 50 55c0 18 -39 30 -39 30l103 67s68 -31 68 -88c0 -51 -32 -88 -95 -122l-65 -35l151 -258l-122 -29l-150 276l-35 -178l-5 -85h-135l125 645l5 100z" />
    <glyph glyph-name="l" unicode="l" horiz-adv-x="265" 
d="M297 760l-132 -675l-5 -85h-135l125 645l5 100z" />
    <glyph glyph-name="m" unicode="m" horiz-adv-x="841" 
d="M448 0h-135l62 327c3 14 18 85 -23 85c-53 0 -135 -76 -135 -76l-49 -251l-7 -85h-134l79 402l-9 86l143 31l-11 -83s75 84 169 84c72 0 105 -39 112 -92c11 12 86 92 178 92c102 0 126 -77 109 -164l-53 -273l-6 -83h-135l62 327c3 14 18 85 -23 85
c-47 0 -120 -62 -140 -80l-48 -249z" />
    <glyph glyph-name="n" unicode="n" horiz-adv-x="553" 
d="M448 0h-135l62 327c3 14 18 85 -23 85c-53 0 -135 -76 -135 -76l-49 -251l-7 -85h-134l79 402l-9 86l143 31l-11 -83s75 84 169 84c102 0 126 -77 109 -164l-53 -273z" />
    <glyph glyph-name="o" unicode="o" horiz-adv-x="507" 
d="M222 78c58 0 132 73 132 227c0 71 -28 125 -74 125c-76 0 -132 -120 -132 -225c0 -75 23 -127 74 -127zM305 520c99 0 177 -70 177 -201c0 -176 -104 -332 -280 -332c-145 0 -179 120 -179 200c0 196 113 333 282 333z" />
    <glyph glyph-name="p" unicode="p" horiz-adv-x="532" 
d="M240 520l-12 -82s65 82 146 82c69 0 130 -56 130 -171c0 -184 -88 -362 -279 -362c-23 0 -74 12 -74 12l-29 -154l-5 -85h-136l125 645l-8 84zM225 79c94 0 151 124 151 256c0 58 -19 81 -42 81c-40 0 -118 -82 -118 -82l-48 -245s33 -10 57 -10z" />
    <glyph glyph-name="q" unicode="q" horiz-adv-x="534" 
d="M202 86c42 0 121 82 121 82l50 261c-21 1 -55 4 -81 4c-70 0 -133 -131 -133 -258c0 -62 21 -89 43 -89zM389 -131l-5 -109h-141l57 290s-66 -63 -130 -63c-71 0 -139 61 -139 174c0 185 95 359 292 359c61 0 121 -12 190 -13z" />
    <glyph glyph-name="r" unicode="r" horiz-adv-x="401" 
d="M164 0h-137l79 402l-8 90l141 28l-16 -107s60 107 144 107c39 0 67 -15 67 -15l-44 -111s-28 12 -53 12c-57 0 -127 -109 -143 -192l-25 -129z" />
    <glyph glyph-name="s" unicode="s" horiz-adv-x="405" 
d="M60 371c0 92 100 149 197 149c70 0 147 -28 147 -28l-35 -95c0 -1 -64 34 -124 34c-37 0 -61 -23 -61 -48c0 -86 185 -87 185 -233c0 -106 -99 -163 -193 -163c-98 0 -161 59 -161 59l8 110c1 0 86 -75 151 -75c30 0 71 19 71 59c0 81 -185 84 -185 231z" />
    <glyph glyph-name="t" unicode="t" horiz-adv-x="389" 
d="M284 609l-30 -104h153l-50 -92h-122l-50 -269c-6 -34 14 -44 28 -44c49 0 128 64 128 64v-116s-80 -61 -163 -61c-65 0 -125 34 -125 120c0 14 57 306 57 306h-60l19 92h59l18 88z" />
    <glyph glyph-name="u" unicode="u" horiz-adv-x="557" 
d="M527 505l-67 -346c-14 -72 -6 -108 38 -155l-122 -17c-30 22 -40 62 -38 84l1 8s-75 -92 -179 -92c-99 0 -129 72 -112 162l52 273l5 83h136l-62 -327c-3 -14 -18 -85 28 -85c45 0 132 86 132 86l47 241l7 85h134z" />
    <glyph glyph-name="v" unicode="v" horiz-adv-x="474" 
d="M233 -13l-107 20l-61 400l-31 94l139 19l45 -305l3 -85l42 85l78 128c16 26 23 50 23 75c0 37 -27 83 -27 83l119 19s23 -45 23 -87c0 -40 -16 -82 -49 -134z" />
    <glyph glyph-name="w" unicode="w" horiz-adv-x="781" 
d="M239 -13l-113 20l-61 400l-31 94l139 19l45 -305l3 -85l42 85l78 128c16 26 23 50 23 75c0 37 -27 83 -27 83l131 19s17 -34 22 -70l35 -235l3 -85l42 85l78 128c16 26 23 50 23 75c0 37 -27 83 -27 83l131 19s23 -45 23 -87c0 -40 -16 -82 -49 -134l-203 -312l-113 20
l-36 236z" />
    <glyph glyph-name="x" unicode="x" horiz-adv-x="490" 
d="M-39 0l223 254l-71 160l-59 87l140 18l75 -179l14 20l51 54c33 35 -3 87 -3 87l129 18s44 -75 -37 -160l-107 -111l116 -248h-134l-61 137l-8 24l-16 -25l-115 -136h-137z" />
    <glyph glyph-name="y" unicode="y" horiz-adv-x="486" 
d="M121 37l-56 370l-31 94l139 19l45 -305l3 -85l42 85l78 128c16 26 23 50 23 75c0 37 -27 83 -27 83l131 19s23 -45 23 -87c0 -40 -16 -82 -49 -134l-251 -399c-64 -101 -155 -143 -230 -143c-21 0 -66 12 -66 12l-6 110s39 -15 73 -15c40 0 83 19 126 81l45 64z" />
    <glyph glyph-name="z" unicode="z" horiz-adv-x="468" 
d="M-17 0v29l265 344l36 40h-246l45 92h388v-29l-265 -345l-35 -39h278l-18 -92h-448z" />
    <glyph glyph-name="braceleft" unicode="{" horiz-adv-x="301" 
d="M26 263l14 72c63 0 79 57 81 70l37 191c22 109 120 159 228 159l-12 -82c-33 0 -82 -9 -96 -80l-36 -187c-14 -71 -77 -107 -77 -107s46 -36 35 -107l-43 -272c-14 -71 33 -80 66 -80l-12 -82c-112 0 -193 50 -172 159l43 276c3 13 7 70 -56 70z" />
    <glyph glyph-name="bar" unicode="|" horiz-adv-x="237" 
d="M174 756v-1010h-111v1010h111z" />
    <glyph glyph-name="braceright" unicode="}" horiz-adv-x="301" 
d="M299 335l-14 -72c-63 0 -77 -57 -80 -70l-53 -276c-22 -109 -118 -159 -229 -159l12 82c33 0 84 9 98 80l53 272c14 71 74 107 74 107s-49 36 -35 107l36 187c14 71 -33 80 -66 80l12 82c112 0 194 -50 172 -159l-37 -191c-2 -13 -6 -70 57 -70z" />
    <glyph glyph-name="A" unicode="A" horiz-adv-x="552" 
d="M-83 0l379 660l99 20l96 -555l32 -125h-142l-26 155h-225l-89 -155h-124zM293 452l-106 -194h153l-29 194l-1 39z" />
    <glyph glyph-name="space" unicode=" " horiz-adv-x="270" 
 />
    <glyph glyph-name="onehalf" unicode="&#xbd;" horiz-adv-x="740" 
d="M611 559l-325 -470h-102l345 501zM33 285l13 71h75l36 204l-58 -17l-15 68l202 61l-56 -316h76l-23 -71h-250zM683 -59h-266v47c33 28 186 151 186 224c0 23 -13 31 -30 31c-23 0 -54 -15 -76 -30l-28 72c39 31 90 48 138 48c60 0 113 -30 113 -94
c0 -80 -96 -167 -154 -215h140z" />
    <glyph glyph-name="onequarter" unicode="&#xbc;" horiz-adv-x="750" 
d="M372 79l232 266l85 -26l-37 -210h70l-33 -79h-51l-5 -26l-3 -63h-115l16 89h-157zM546 109l13 87l9 37l-24 -37l-61 -71l-23 -18l22 2h64zM621 559l-325 -470h-102l345 501zM33 287l13 71h75l36 204l-58 -17l-15 68l202 61l-56 -316h76l-23 -71h-250z" />
    <glyph glyph-name="onesuperior" unicode="&#xb9;" horiz-adv-x="329" 
d="M51 285l13 71h75l36 204l-58 -17l-15 68l202 61l-56 -316h76l-23 -71h-250z" />
    <glyph glyph-name="threequarters" unicode="&#xbe;" horiz-adv-x="729" 
d="M351 79l232 266l85 -26l-37 -210h70l-33 -79h-51l-5 -26l-3 -63h-115l16 89h-157zM525 109l13 87l9 37l-24 -37l-61 -71l-23 -18l22 2h64zM600 559l-325 -470h-102l345 501zM333 581c-5 -31 -39 -62 -73 -79c35 -6 59 -41 59 -79c0 -110 -135 -142 -224 -142
c-22 0 -43 2 -60 5l-9 70c16 -2 34 -4 52 -4c58 0 132 17 132 72c0 28 -49 35 -88 35l15 46c40 16 84 34 84 76c0 20 -17 26 -34 26c-40 0 -81 -28 -81 -28l-17 61s54 37 129 37c61 0 116 -28 116 -80c0 -5 0 -11 -1 -16z" />
    <glyph glyph-name="threesuperior" unicode="&#xb3;" horiz-adv-x="351" 
d="M333 581c-5 -31 -39 -62 -73 -79c35 -6 59 -41 59 -79c0 -110 -135 -142 -224 -142c-22 0 -43 2 -60 5l-9 70c16 -2 34 -4 52 -4c58 0 132 17 132 72c0 28 -49 35 -88 35l15 46c40 16 84 34 84 76c0 20 -17 26 -34 26c-40 0 -81 -28 -81 -28l-17 61s54 37 129 37
c61 0 116 -28 116 -80c0 -5 0 -11 -1 -16z" />
    <glyph glyph-name="twosuperior" unicode="&#xb2;" horiz-adv-x="342" 
d="M292 286h-266v47c33 28 186 151 186 224c0 23 -13 31 -30 31c-23 0 -54 -15 -76 -30l-28 72c39 31 90 48 138 48c60 0 113 -30 113 -94c0 -80 -96 -167 -154 -215h140z" />
    <glyph glyph-name="Eth" unicode="&#xd0;" horiz-adv-x="671" 
d="M45 392h69l34 174l4 102h266c135 0 230 -105 230 -262c0 -219 -144 -406 -374 -406h-236l56 288h-66zM279 571l-35 -179h110l-42 -104h-88l-37 -191h99c120 0 228 131 228 297c0 88 -46 177 -138 177h-97z" />
    <glyph glyph-name="eth" unicode="&#xf0;" horiz-adv-x="540" 
d="M542 682l-76 -30c48 -68 68 -157 68 -246c0 -208 -99 -419 -313 -419c-161 0 -198 123 -198 202c0 179 134 331 278 331c67 0 101 -27 101 -27c-11 40 -29 78 -54 110l-125 -50l-15 63l89 36c-23 16 -50 30 -81 39l63 80c58 -14 105 -38 141 -69l130 52zM309 428
c-100 0 -160 -131 -160 -227c0 -71 29 -126 84 -126c121 0 174 202 175 313c-25 26 -67 40 -99 40z" />
    <glyph glyph-name="Lslash" unicode="&#x141;" horiz-adv-x="445" 
d="M38 0l42 219l-56 -29l-27 89l106 55l45 232l4 102h146l-50 -259l112 59l-1 -104l-134 -69l-37 -194h257l-45 -101h-362z" />
    <glyph glyph-name="lslash" unicode="&#x142;" horiz-adv-x="265" 
d="M297 760l-71 -362l62 32v-97l-83 -44l-40 -204l-5 -85h-135l42 216l-52 -27l-21 88l94 49l62 319l5 100z" />
    <glyph glyph-name="Scaron" unicode="&#x160;" horiz-adv-x="465" 
d="M468 645l-45 -98c0 -1 -67 34 -129 34c-51 0 -92 -35 -92 -83c0 -115 217 -144 217 -311c0 -115 -105 -200 -233 -200c-103 0 -185 55 -185 55l16 103s87 -58 163 -58c45 0 109 25 109 89c0 91 -222 139 -222 303c0 120 117 199 233 199c96 0 168 -33 168 -33zM355 712
h-102l-102 133l81 30l79 -93l95 93l75 -30z" />
    <glyph glyph-name="scaron" unicode="&#x161;" horiz-adv-x="405" 
d="M60 371c0 92 100 149 197 149c70 0 147 -28 147 -28l-35 -95c0 -1 -64 34 -124 34c-37 0 -61 -23 -61 -48c0 -86 185 -87 185 -233c0 -106 -99 -163 -193 -163c-98 0 -161 59 -161 59l8 110c1 0 86 -75 151 -75c30 0 71 19 71 59c0 81 -185 84 -185 231zM305 561h-102
l-102 133l81 30l79 -93l95 93l75 -30z" />
    <glyph glyph-name="Yacute" unicode="&#xdd;" horiz-adv-x="535" 
d="M325 291l-40 -206l-4 -85h-143l57 290l-96 291l-47 87h151l75 -222l8 -42l28 49l151 215h135zM387 875h149l-200 -164l-76 28z" />
    <glyph glyph-name="yacute" unicode="&#xfd;" horiz-adv-x="486" 
d="M121 37l-56 370l-31 94l139 19l45 -305l3 -85l42 85l78 128c16 26 23 50 23 75c0 37 -27 83 -27 83l131 19s23 -45 23 -87c0 -40 -16 -82 -49 -134l-251 -399c-64 -101 -155 -143 -230 -143c-21 0 -66 12 -66 12l-6 110s39 -15 73 -15c40 0 83 19 126 81l45 64zM305 723
h149l-200 -164l-76 28z" />
    <glyph glyph-name="Thorn" unicode="&#xde;" horiz-adv-x="516" 
d="M29 0l124 634l9 112l145 10l-29 -148h59c103 0 194 -72 194 -178c0 -152 -127 -254 -308 -254h-31l-16 -91l-4 -85h-143zM259 511l-47 -235h43c72 0 140 47 140 147c0 51 -37 88 -89 88h-47z" />
    <glyph glyph-name="thorn" unicode="&#xfe;" horiz-adv-x="532" 
d="M237 476l-13 -39s69 83 150 83c69 0 130 -56 130 -171c0 -184 -88 -362 -279 -362c-23 0 -74 12 -74 12l-29 -154l-5 -85h-136l173 887l-8 89l147 29zM225 79c94 0 151 124 151 256c0 58 -19 81 -42 81c-40 0 -118 -82 -118 -82l-48 -245s33 -10 57 -10z" />
    <glyph glyph-name="Zcaron" unicode="&#x17d;" horiz-adv-x="571" 
d="M-27 0v35l394 478l52 53h-338l51 102h491v-35l-395 -477l-54 -55h371l-21 -101h-551zM436 711h-102l-102 133l81 30l79 -93l95 93l75 -30z" />
    <glyph glyph-name="zcaron" unicode="&#x17e;" horiz-adv-x="468" 
d="M-17 0v29l265 344l36 40h-246l45 92h388v-29l-265 -345l-35 -39h278l-18 -92h-448zM326 561h-102l-102 133l81 30l79 -93l95 93l75 -30z" />
    <glyph glyph-name="multiply" unicode="&#xd7;" horiz-adv-x="439" 
d="M337 62l-118 117l-115 -115l-71 72l115 116l-124 122l90 51l102 -104l125 126l53 -94l-104 -103l117 -118z" />
    <glyph glyph-name="exclam" unicode="!" horiz-adv-x="269" 
d="M314 766l-140 -575l-89 11l66 451l4 93zM179 61c0 -41 -31 -74 -75 -74s-75 33 -75 74c0 38 31 75 75 75s75 -37 75 -75z" />
    <glyph glyph-name="quotedbl" unicode="&#x22;" horiz-adv-x="375" 
d="M191 427h-97l25 126v100l114 19zM351 427h-97l25 126v100l114 19z" />
    <glyph glyph-name="numbersign" unicode="#" horiz-adv-x="726" 
d="M632 174h-141l-52 -174h-118l53 174h-121l-52 -174h-118l53 174h-135l18 94h145l48 156h-135l18 94h144l45 150h117l-46 -150h121l45 150h118l-46 -150h144l-29 -94h-141l-48 -156h143zM402 268l48 156h-121l-48 -156h121z" />
    <glyph glyph-name="dollar" unicode="$" horiz-adv-x="465" 
d="M367 756l-18 -81c70 -8 119 -30 119 -30l-45 -98c0 -1 -45 22 -95 31l-43 -197c61 -47 134 -98 134 -194c0 -111 -98 -194 -220 -200l-17 -81h-61l18 85c-80 11 -138 51 -138 51l16 103s73 -49 143 -57l42 193c-62 48 -135 104 -135 198c0 116 110 194 222 199l17 78h61z
M202 498c0 -28 12 -51 32 -72l33 151c-38 -10 -65 -40 -65 -79zM289 176c0 22 -14 42 -35 62l-31 -144c34 11 66 37 66 82z" />
    <glyph glyph-name="percent" unicode="%" horiz-adv-x="860" 
d="M387 507c0 -89 -78 -163 -166 -163c-86 0 -163 74 -163 163s77 163 163 163c88 0 166 -74 166 -163zM299 508c0 41 -38 75 -77 75c-41 0 -76 -34 -76 -75c0 -38 32 -80 76 -80c49 0 77 42 77 80zM772 647l-569 -647h-127l601 688zM802 150c0 -89 -78 -163 -166 -163
c-86 0 -163 74 -163 163s77 163 163 163c88 0 166 -74 166 -163zM714 151c0 41 -38 75 -77 75c-41 0 -76 -34 -76 -75c0 -38 32 -80 76 -80c49 0 77 42 77 80z" />
    <glyph glyph-name="ampersand" unicode="&#x26;" horiz-adv-x="704" 
d="M384 299l36 97c140 3 224 64 262 103l21 -105s-32 -29 -69 -44c0 -221 -143 -363 -334 -363c-121 0 -259 68 -259 232c0 94 55 195 155 235c-24 27 -43 79 -43 119c0 109 119 194 268 194c91 0 179 -50 179 -50l-34 -108s-76 59 -152 59c-65 0 -126 -50 -126 -113
c0 -53 41 -117 41 -117l-2 -15c-90 -38 -150 -118 -150 -198c0 -98 68 -138 135 -138c96 0 196 88 196 205c0 6 0 12 -1 18c-31 -9 -69 -13 -96 -13c-9 0 -24 1 -27 2z" />
    <glyph glyph-name="quotesingle" unicode="'" horiz-adv-x="215" 
d="M191 427h-97l25 126v100l114 19z" />
    <glyph glyph-name="parenleft" unicode="(" horiz-adv-x="318" 
d="M327 692l84 -37c-159 -111 -262 -351 -262 -561c0 -192 88 -309 88 -305l-93 -37s-113 131 -113 349c0 207 106 474 296 591z" />
    <glyph glyph-name="parenright" unicode=")" horiz-adv-x="308" 
d="M-25 -248l-84 37c159 111 262 351 262 561c0 192 -88 309 -88 305l93 37s113 -131 113 -349c0 -207 -106 -474 -296 -591z" />
    <glyph glyph-name="asterisk" unicode="*" horiz-adv-x="402" 
d="M5 539l40 82l108 -3l-81 126l103 7l45 -87l61 112l67 -65l-61 -93l148 3l-40 -82l-108 3l81 -126l-103 -7l-45 86l-61 -110l-65 65l59 92z" />
    <glyph glyph-name="plus" unicode="+" horiz-adv-x="481" 
d="M186 60v144h-143v98h143v154l110 -30v-124h151l-25 -98h-126v-144h-110z" />
    <glyph glyph-name="comma" unicode="," horiz-adv-x="250" 
d="M20 -138l-28 43c46 32 74 79 74 108c0 28 -10 37 -29 46v7c0 29 27 68 67 68c37 0 71 -25 71 -77c0 -48 -43 -126 -155 -195z" />
    <glyph glyph-name="hyphen" unicode="-" horiz-adv-x="312" 
d="M16 299h291l-28 -104h-263v104z" />
    <glyph glyph-name="period" unicode="." horiz-adv-x="237" 
d="M175 61c0 -41 -31 -74 -75 -74s-75 33 -75 74c0 38 31 75 75 75s75 -37 75 -75z" />
    <glyph glyph-name="slash" unicode="/" horiz-adv-x="356" 
d="M373 657l-285 -901h-110l282 901h113z" />
    <glyph glyph-name="zero" unicode="0" 
d="M298 600c130 0 178 -95 178 -200c0 -211 -76 -413 -272 -413c-90 0 -179 53 -179 192c0 218 97 421 273 421zM293 510c-111 0 -143 -235 -143 -336c0 -64 23 -99 64 -99c107 0 138 216 138 318c0 58 -12 117 -59 117z" />
    <glyph glyph-name="one" unicode="1" horiz-adv-x="380" 
d="M6 0l17 96h95l63 356l-107 -32l-8 99l268 86l-92 -509h120l-25 -96h-331z" />
    <glyph glyph-name="two" unicode="2" 
d="M101 465l-16 101c0 1 95 34 172 34c105 0 173 -64 173 -155c0 -159 -244 -338 -244 -338l218 1l-27 -108h-365v59c82 75 291 258 291 369c0 40 -23 72 -77 72c-50 0 -126 -35 -125 -35z" />
    <glyph glyph-name="three" unicode="3" 
d="M3 -101l-10 93c7 -1 16 -1 26 -1c87 0 256 32 256 166c0 65 -63 86 -127 94l29 74c57 20 125 66 125 124c0 35 -35 52 -65 52c-57 0 -131 -37 -132 -36l-18 102s95 33 174 33c85 0 168 -49 168 -135c0 -58 -47 -125 -121 -153c47 -12 96 -62 96 -142
c0 -175 -192 -271 -353 -271h-48z" />
    <glyph glyph-name="four" unicode="4" 
d="M5 166l359 434l103 -18l-67 -379h96l-39 -108h-76l-18 -103l-4 -92h-136l34 195h-248zM278 203l28 156l21 77l-49 -74l-101 -129l-28 -30h129z" />
    <glyph glyph-name="five" unicode="5" 
d="M460 585l-43 -108h-176l-20 -101c109 -10 170 -93 170 -186c0 -176 -143 -291 -330 -291h-45l-10 94h13c104 0 241 36 241 184c0 70 -44 112 -112 112c-19 0 -65 -4 -65 -4l64 300h313z" />
    <glyph glyph-name="six" unicode="6" 
d="M375 580c-89 0 -150 -78 -186 -168c17 7 52 21 97 21c87 0 164 -58 164 -184c0 -155 -98 -262 -249 -262c-122 0 -173 115 -173 239c0 210 138 452 352 452c70 0 139 -27 139 -27l-38 -100s-54 29 -106 29zM250 339c-38 0 -74 -14 -88 -20c-7 -36 -11 -70 -11 -99
c0 -71 12 -138 70 -138c67 0 103 81 103 151c0 74 -34 106 -74 106z" />
    <glyph glyph-name="seven" unicode="7" 
d="M106 -114l-104 22l339 569h-259l-20 108h430l21 -25z" />
    <glyph glyph-name="eight" unicode="8" 
d="M202 -13c-108 0 -188 65 -188 154c0 103 67 151 154 210c-47 47 -73 95 -73 151c0 117 97 176 195 176c111 0 166 -67 166 -132c0 -80 -69 -142 -124 -181c53 -51 93 -102 93 -170c0 -126 -111 -208 -223 -208zM300 174c0 62 -73 119 -73 119s-93 -63 -93 -132
c0 -44 31 -78 77 -78c54 0 89 50 89 91zM214 525c0 -46 30 -74 56 -101c41 33 67 64 67 106c0 36 -21 64 -60 64c-43 0 -63 -37 -63 -69z" />
    <glyph glyph-name="nine" unicode="9" 
d="M320 173c-17 -7 -55 -21 -100 -21c-87 0 -164 58 -164 184c0 155 98 262 249 262c122 0 173 -115 173 -239c0 -204 -114 -470 -357 -470c-57 0 -136 20 -134 22l35 97c30 -13 70 -22 107 -22c105 0 160 91 191 187zM256 246c38 0 74 14 88 20c7 36 11 70 11 99
c0 71 -12 138 -70 138c-67 0 -103 -81 -103 -151c0 -74 34 -106 74 -106z" />
    <glyph glyph-name="colon" unicode=":" horiz-adv-x="258" 
d="M83 323c0 39 32 70 70 70c36 0 67 -31 67 -70c0 -37 -31 -67 -67 -67c-38 0 -70 30 -70 67zM33 54c0 39 32 70 70 70c36 0 67 -31 67 -70c0 -37 -31 -67 -67 -67c-38 0 -70 30 -70 67z" />
    <glyph glyph-name="semicolon" unicode=";" horiz-adv-x="258" 
d="M20 -138l-28 43c46 32 74 79 74 108c0 28 -10 37 -29 46v7c0 29 27 68 67 68c37 0 71 -25 71 -77c0 -48 -43 -126 -155 -195zM84 323c0 39 32 70 70 70c36 0 67 -31 67 -70c0 -37 -31 -67 -67 -67c-38 0 -70 30 -70 67z" />
    <glyph glyph-name="less" unicode="&#x3c;" horiz-adv-x="379" 
d="M343 401l-153 -155l153 -153l-45 -90l-269 244l269 244z" />
    <glyph glyph-name="equal" unicode="=" horiz-adv-x="490" 
d="M43 201h398l-25 -94h-373v94zM43 386h408l-25 -94h-383v94z" />
    <glyph glyph-name="greater" unicode="&#x3e;" horiz-adv-x="379" 
d="M34 93l153 155l-153 153l45 90l269 -244l-269 -244z" />
    <glyph glyph-name="question" unicode="?" horiz-adv-x="411" 
d="M185 185l-98 40s-2 5 -2 12c0 107 241 243 241 343c0 47 -33 72 -78 72s-108 -38 -108 -38l-15 114s74 32 149 32c93 0 182 -43 182 -166c0 -145 -273 -283 -273 -392c0 -4 1 -13 2 -17zM204 61c0 -41 -31 -74 -75 -74s-75 33 -75 74c0 38 31 75 75 75s75 -37 75 -75z
" />
    <glyph glyph-name="at" unicode="@" horiz-adv-x="902" 
d="M640 406c0 0 -54 -280 -54 -309c0 -24 7 -43 7 -43c99 38 173 178 173 268c0 135 -95 258 -255 258c-203 0 -381 -187 -381 -383c0 -139 91 -287 279 -314l-70 -89c-203 49 -310 211 -310 380c0 233 176 494 507 494c193 0 337 -155 337 -326c0 -210 -162 -374 -376 -389
c-25 35 -33 98 -33 98s-47 -60 -119 -60c-90 0 -130 73 -130 158c0 179 155 357 352 357c46 0 98 -20 98 -20zM465 118l60 300c-111 -16 -180 -142 -180 -255c0 -39 12 -71 46 -71c38 0 74 26 74 26z" />
    <glyph glyph-name="asciitilde" unicode="~" horiz-adv-x="588" 
d="M511 348l45 -89c-37 -38 -97 -67 -159 -67c-84 0 -141 56 -218 56c-33 0 -74 -12 -104 -46l-41 88c36 31 89 64 154 64c93 0 147 -56 213 -56c32 0 67 12 110 50z" />
    <glyph glyph-name="Adieresis" unicode="&#xc4;" horiz-adv-x="552" 
d="M-83 0l379 660l99 20l96 -555l32 -125h-142l-26 155h-225l-89 -155h-124zM293 452l-106 -194h153l-29 194l-1 39zM302 788c0 -34 -26 -61 -56 -61s-56 27 -56 61s26 62 56 62s56 -28 56 -62zM486 788c0 -34 -26 -61 -56 -61c-31 0 -56 27 -56 61s25 62 56 62
c30 0 56 -28 56 -62z" />
    <glyph glyph-name="Aring" unicode="&#xc5;" horiz-adv-x="552" 
d="M-83 0l379 660l99 20l96 -555l32 -125h-142l-26 155h-225l-89 -155h-124zM293 452l-106 -194h153l-29 194l-1 39zM429 791c0 -48 -43 -88 -91 -88c-47 0 -89 40 -89 88s42 88 89 88c48 0 91 -40 91 -88zM382 792c0 23 -21 43 -43 43c-24 0 -43 -20 -43 -43
c0 -22 18 -47 43 -47c28 0 43 25 43 47z" />
    <glyph glyph-name="Ccedilla" unicode="&#xc7;" horiz-adv-x="614" 
d="M261 -49l13 41c-132 22 -216 127 -216 268c0 241 154 418 381 418c106 0 206 -67 206 -67l-62 -90c0 -1 -77 60 -152 60c-127 0 -240 -135 -240 -311c0 -95 51 -181 159 -181c123 0 212 110 212 110l9 -121s-84 -81 -219 -90c34 -32 94 -57 94 -107
c0 -84 -77 -116 -145 -116c-39 0 -80 14 -113 39l36 69c21 -24 61 -31 82 -31c20 0 39 7 39 27c0 30 -66 49 -84 82z" />
    <glyph glyph-name="Eacute" unicode="&#xc9;" horiz-adv-x="505" 
d="M35 0l110 566l4 102h361l-17 -99h-216l-36 -177h202l-37 -99h-184l-36 -194h242l-39 -99h-354zM349 875h149l-200 -164l-76 28z" />
    <glyph glyph-name="Ntilde" unicode="&#xd1;" horiz-adv-x="738" 
d="M736 668l-112 -583l-9 -85h-82l-260 376l-37 80l-69 -371l-4 -85h-128l108 565l-10 103h108l257 -390l37 -77l65 365l4 102h132zM557 831l54 -39s-20 -71 -111 -71c-61 0 -93 34 -121 34c-45 0 -66 -34 -66 -34l-52 37s28 73 114 73c52 0 86 -35 117 -35c16 0 49 2 65 35
z" />
    <glyph glyph-name="Odieresis" unicode="&#xd6;" horiz-adv-x="659" 
d="M382 582c-91 0 -216 -105 -216 -321c0 -107 52 -177 130 -177c125 0 217 169 217 317c0 106 -47 181 -131 181zM33 249c0 231 132 429 359 429c194 0 254 -154 254 -258c0 -255 -152 -433 -363 -433c-164 0 -250 119 -250 262zM357 788c0 -34 -26 -61 -56 -61
s-56 27 -56 61s26 62 56 62s56 -28 56 -62zM541 788c0 -34 -26 -61 -56 -61c-31 0 -56 27 -56 61s25 62 56 62c30 0 56 -28 56 -62z" />
    <glyph glyph-name="Udieresis" unicode="&#xdc;" horiz-adv-x="676" 
d="M550 668h131l-78 -402c-32 -164 -136 -279 -298 -279c-238 0 -253 165 -224 323l46 256l5 102h147l-67 -365c-15 -82 -29 -219 99 -219c87 0 157 81 175 175l59 307zM360 788c0 -34 -26 -61 -56 -61s-56 27 -56 61s26 62 56 62s56 -28 56 -62zM544 788
c0 -34 -26 -61 -56 -61c-31 0 -56 27 -56 61s25 62 56 62c30 0 56 -28 56 -62z" />
    <glyph glyph-name="aacute" unicode="&#xe1;" horiz-adv-x="521" 
d="M306 165l50 266c-16 2 -37 4 -45 4c-76 0 -160 -121 -160 -267c0 -37 10 -82 41 -82c49 0 114 79 114 79zM466 4l-124 -17c-30 22 -40 62 -38 76l1 7s-70 -83 -145 -83c-71 0 -137 53 -137 166c0 185 113 367 281 367c46 0 114 -10 191 -15l-67 -346
c-14 -72 -6 -108 38 -155zM359 724h149l-200 -164l-76 28z" />
    <glyph glyph-name="agrave" unicode="&#xe0;" horiz-adv-x="521" 
d="M306 165l50 266c-16 2 -37 4 -45 4c-76 0 -160 -121 -160 -267c0 -37 10 -82 41 -82c49 0 114 79 114 79zM466 4l-124 -17c-30 22 -40 62 -38 76l1 7s-70 -83 -145 -83c-71 0 -137 53 -137 166c0 185 113 367 281 367c46 0 114 -10 191 -15l-67 -346
c-14 -72 -6 -108 38 -155zM155 724h149l103 -136l-82 -28z" />
    <glyph glyph-name="acircumflex" unicode="&#xe2;" horiz-adv-x="521" 
d="M306 165l50 266c-16 2 -37 4 -45 4c-76 0 -160 -121 -160 -267c0 -37 10 -82 41 -82c49 0 114 79 114 79zM466 4l-124 -17c-30 22 -40 62 -38 76l1 7s-70 -83 -145 -83c-71 0 -137 53 -137 166c0 185 113 367 281 367c46 0 114 -10 191 -15l-67 -346
c-14 -72 -6 -108 38 -155zM275 724h102l102 -133l-81 -30l-79 93l-95 -93l-75 30z" />
    <glyph glyph-name="adieresis" unicode="&#xe4;" horiz-adv-x="521" 
d="M306 165l50 266c-16 2 -37 4 -45 4c-76 0 -160 -121 -160 -267c0 -37 10 -82 41 -82c49 0 114 79 114 79zM466 4l-124 -17c-30 22 -40 62 -38 76l1 7s-70 -83 -145 -83c-71 0 -137 53 -137 166c0 185 113 367 281 367c46 0 114 -10 191 -15l-67 -346
c-14 -72 -6 -108 38 -155zM283 637c0 -34 -26 -61 -56 -61s-56 27 -56 61s26 62 56 62s56 -28 56 -62zM467 637c0 -34 -26 -61 -56 -61c-31 0 -56 27 -56 61s25 62 56 62c30 0 56 -28 56 -62z" />
    <glyph glyph-name="atilde" unicode="&#xe3;" horiz-adv-x="521" 
d="M306 165l50 266c-16 2 -37 4 -45 4c-76 0 -160 -121 -160 -267c0 -37 10 -82 41 -82c49 0 114 79 114 79zM466 4l-124 -17c-30 22 -40 62 -38 76l1 7s-70 -83 -145 -83c-71 0 -137 53 -137 166c0 185 113 367 281 367c46 0 114 -10 191 -15l-67 -346
c-14 -72 -6 -108 38 -155zM438 680l54 -39s-20 -71 -111 -71c-61 0 -93 34 -121 34c-45 0 -66 -34 -66 -34l-52 37s28 73 114 73c52 0 86 -35 117 -35c16 0 49 2 65 35z" />
    <glyph glyph-name="aring" unicode="&#xe5;" horiz-adv-x="521" 
d="M306 165l50 266c-16 2 -37 4 -45 4c-76 0 -160 -121 -160 -267c0 -37 10 -82 41 -82c49 0 114 79 114 79zM466 4l-124 -17c-30 22 -40 62 -38 76l1 7s-70 -83 -145 -83c-71 0 -137 53 -137 166c0 185 113 367 281 367c46 0 114 -10 191 -15l-67 -346
c-14 -72 -6 -108 38 -155zM410 640c0 -48 -43 -88 -91 -88c-47 0 -89 40 -89 88s42 88 89 88c48 0 91 -40 91 -88zM363 641c0 23 -21 43 -43 43c-24 0 -43 -20 -43 -43c0 -22 18 -47 43 -47c28 0 43 25 43 47z" />
    <glyph glyph-name="ccedilla" unicode="&#xe7;" horiz-adv-x="461" 
d="M174 -49l12 39c-112 15 -163 106 -163 209c0 204 123 321 260 321c79 0 170 -28 170 -28l-31 -100s-77 35 -125 35c-98 0 -148 -110 -148 -198c0 -71 28 -138 106 -138c77 0 156 87 156 87l8 -115s-62 -59 -156 -73c33 -33 96 -58 96 -109c0 -84 -77 -116 -145 -116
c-39 0 -80 14 -113 39l36 69c21 -24 61 -31 82 -31c20 0 39 7 39 27c0 30 -66 49 -84 82z" />
    <glyph glyph-name="eacute" unicode="&#xe9;" horiz-adv-x="459" 
d="M448 398c0 -135 -149 -178 -295 -183c0 -69 38 -123 100 -123c84 0 165 90 165 90l8 -118s-67 -77 -199 -77c-137 0 -198 102 -198 218c0 169 107 314 269 314c102 0 150 -52 150 -121zM162 293c50 6 158 12 158 95c0 30 -17 43 -37 43c-67 0 -104 -75 -121 -138z
M320 724h149l-200 -164l-76 28z" />
    <glyph glyph-name="egrave" unicode="&#xe8;" horiz-adv-x="459" 
d="M448 398c0 -135 -149 -178 -295 -183c0 -69 38 -123 100 -123c84 0 165 90 165 90l8 -118s-67 -77 -199 -77c-137 0 -198 102 -198 218c0 169 107 314 269 314c102 0 150 -52 150 -121zM162 293c50 6 158 12 158 95c0 30 -17 43 -37 43c-67 0 -104 -75 -121 -138z
M116 724h149l103 -136l-82 -28z" />
    <glyph glyph-name="ecircumflex" unicode="&#xea;" horiz-adv-x="459" 
d="M448 398c0 -135 -149 -178 -295 -183c0 -69 38 -123 100 -123c84 0 165 90 165 90l8 -118s-67 -77 -199 -77c-137 0 -198 102 -198 218c0 169 107 314 269 314c102 0 150 -52 150 -121zM162 293c50 6 158 12 158 95c0 30 -17 43 -37 43c-67 0 -104 -75 -121 -138z
M236 724h102l102 -133l-81 -30l-79 93l-95 -93l-75 30z" />
    <glyph glyph-name="edieresis" unicode="&#xeb;" horiz-adv-x="459" 
d="M448 398c0 -135 -149 -178 -295 -183c0 -69 38 -123 100 -123c84 0 165 90 165 90l8 -118s-67 -77 -199 -77c-137 0 -198 102 -198 218c0 169 107 314 269 314c102 0 150 -52 150 -121zM162 293c50 6 158 12 158 95c0 30 -17 43 -37 43c-67 0 -104 -75 -121 -138z
M244 637c0 -34 -26 -61 -56 -61s-56 27 -56 61s26 62 56 62s56 -28 56 -62zM428 637c0 -34 -26 -61 -56 -61c-31 0 -56 27 -56 61s25 62 56 62c30 0 56 -28 56 -62z" />
    <glyph glyph-name="iacute" unicode="&#xed;" horiz-adv-x="282" 
d="M252 520l-85 -434l-5 -86h-135l78 404l6 101zM226 724h149l-200 -164l-76 28z" />
    <glyph glyph-name="igrave" unicode="&#xec;" horiz-adv-x="282" 
d="M252 520l-85 -434l-5 -86h-135l78 404l6 101zM22 724h149l103 -136l-82 -28z" />
    <glyph glyph-name="icircumflex" unicode="&#xee;" horiz-adv-x="282" 
d="M252 520l-85 -434l-5 -86h-135l78 404l6 101zM142 724h102l102 -133l-81 -30l-79 93l-95 -93l-75 30z" />
    <glyph glyph-name="idieresis" unicode="&#xef;" horiz-adv-x="282" 
d="M252 520l-85 -434l-5 -86h-135l78 404l6 101zM150 637c0 -34 -26 -61 -56 -61s-56 27 -56 61s26 62 56 62s56 -28 56 -62zM334 637c0 -34 -26 -61 -56 -61c-31 0 -56 27 -56 61s25 62 56 62c30 0 56 -28 56 -62z" />
    <glyph glyph-name="ntilde" unicode="&#xf1;" horiz-adv-x="553" 
d="M448 0h-135l62 327c3 14 18 85 -23 85c-53 0 -135 -76 -135 -76l-49 -251l-7 -85h-134l79 402l-9 86l143 31l-11 -83s75 84 169 84c102 0 126 -77 109 -164l-53 -273zM463 680l54 -39s-20 -71 -111 -71c-61 0 -93 34 -121 34c-45 0 -66 -34 -66 -34l-52 37s28 73 114 73
c52 0 86 -35 117 -35c16 0 49 2 65 35z" />
    <glyph glyph-name="oacute" unicode="&#xf3;" horiz-adv-x="507" 
d="M222 78c58 0 132 73 132 227c0 71 -28 125 -74 125c-76 0 -132 -120 -132 -225c0 -75 23 -127 74 -127zM305 520c99 0 177 -70 177 -201c0 -176 -104 -332 -280 -332c-145 0 -179 120 -179 200c0 196 113 333 282 333zM355 724h149l-200 -164l-76 28z" />
    <glyph glyph-name="ograve" unicode="&#xf2;" horiz-adv-x="507" 
d="M222 78c58 0 132 73 132 227c0 71 -28 125 -74 125c-76 0 -132 -120 -132 -225c0 -75 23 -127 74 -127zM305 520c99 0 177 -70 177 -201c0 -176 -104 -332 -280 -332c-145 0 -179 120 -179 200c0 196 113 333 282 333zM151 724h149l103 -136l-82 -28z" />
    <glyph glyph-name="ocircumflex" unicode="&#xf4;" horiz-adv-x="507" 
d="M222 78c58 0 132 73 132 227c0 71 -28 125 -74 125c-76 0 -132 -120 -132 -225c0 -75 23 -127 74 -127zM305 520c99 0 177 -70 177 -201c0 -176 -104 -332 -280 -332c-145 0 -179 120 -179 200c0 196 113 333 282 333zM271 724h102l102 -133l-81 -30l-79 93l-95 -93
l-75 30z" />
    <glyph glyph-name="odieresis" unicode="&#xf6;" horiz-adv-x="507" 
d="M222 78c58 0 132 73 132 227c0 71 -28 125 -74 125c-76 0 -132 -120 -132 -225c0 -75 23 -127 74 -127zM305 520c99 0 177 -70 177 -201c0 -176 -104 -332 -280 -332c-145 0 -179 120 -179 200c0 196 113 333 282 333zM279 637c0 -34 -26 -61 -56 -61s-56 27 -56 61
s26 62 56 62s56 -28 56 -62zM463 637c0 -34 -26 -61 -56 -61c-31 0 -56 27 -56 61s25 62 56 62c30 0 56 -28 56 -62z" />
    <glyph glyph-name="otilde" unicode="&#xf5;" horiz-adv-x="507" 
d="M222 78c58 0 132 73 132 227c0 71 -28 125 -74 125c-76 0 -132 -120 -132 -225c0 -75 23 -127 74 -127zM305 520c99 0 177 -70 177 -201c0 -176 -104 -332 -280 -332c-145 0 -179 120 -179 200c0 196 113 333 282 333zM434 680l54 -39s-20 -71 -111 -71
c-61 0 -93 34 -121 34c-45 0 -66 -34 -66 -34l-52 37s28 73 114 73c52 0 86 -35 117 -35c16 0 49 2 65 35z" />
    <glyph glyph-name="uacute" unicode="&#xfa;" horiz-adv-x="557" 
d="M527 505l-67 -346c-14 -72 -6 -108 38 -155l-122 -17c-30 22 -40 62 -38 84l1 8s-75 -92 -179 -92c-99 0 -129 72 -112 162l52 273l5 83h136l-62 -327c-3 -14 -18 -85 28 -85c45 0 132 86 132 86l47 241l7 85h134zM366 724h149l-200 -164l-76 28z" />
    <glyph glyph-name="ugrave" unicode="&#xf9;" horiz-adv-x="557" 
d="M527 505l-67 -346c-14 -72 -6 -108 38 -155l-122 -17c-30 22 -40 62 -38 84l1 8s-75 -92 -179 -92c-99 0 -129 72 -112 162l52 273l5 83h136l-62 -327c-3 -14 -18 -85 28 -85c45 0 132 86 132 86l47 241l7 85h134zM162 724h149l103 -136l-82 -28z" />
    <glyph glyph-name="ucircumflex" unicode="&#xfb;" horiz-adv-x="557" 
d="M527 505l-67 -346c-14 -72 -6 -108 38 -155l-122 -17c-30 22 -40 62 -38 84l1 8s-75 -92 -179 -92c-99 0 -129 72 -112 162l52 273l5 83h136l-62 -327c-3 -14 -18 -85 28 -85c45 0 132 86 132 86l47 241l7 85h134zM282 724h102l102 -133l-81 -30l-79 93l-95 -93l-75 30z
" />
    <glyph glyph-name="udieresis" unicode="&#xfc;" horiz-adv-x="557" 
d="M527 505l-67 -346c-14 -72 -6 -108 38 -155l-122 -17c-30 22 -40 62 -38 84l1 8s-75 -92 -179 -92c-99 0 -129 72 -112 162l52 273l5 83h136l-62 -327c-3 -14 -18 -85 28 -85c45 0 132 86 132 86l47 241l7 85h134zM290 637c0 -34 -26 -61 -56 -61s-56 27 -56 61
s26 62 56 62s56 -28 56 -62zM474 637c0 -34 -26 -61 -56 -61c-31 0 -56 27 -56 61s25 62 56 62c30 0 56 -28 56 -62z" />
    <glyph glyph-name="dagger" unicode="&#x2020;" horiz-adv-x="487" 
d="M197 -244h-123l128 656h-129l18 93h129l28 143l126 15l-31 -158h159l-49 -93h-128z" />
    <glyph glyph-name="degree" unicode="&#xb0;" horiz-adv-x="409" 
d="M365 576c0 -91 -80 -167 -170 -167c-88 0 -167 76 -167 167s79 167 167 167c90 0 170 -76 170 -167zM275 577c0 42 -39 77 -79 77c-42 0 -78 -35 -78 -77c0 -39 33 -82 78 -82c50 0 79 43 79 82z" />
    <glyph glyph-name="cent" unicode="&#xa2;" horiz-adv-x="451" 
d="M371 600l-17 -86c54 -8 99 -22 99 -22l-31 -100s-44 19 -86 29l-63 -329c71 12 138 86 138 86l8 -115s-66 -63 -166 -74l-19 -98h-61l19 98c-116 12 -169 105 -169 210c0 204 123 321 260 321h11l16 80h61zM149 229c0 -57 18 -111 64 -130l63 326
c-84 -14 -127 -115 -127 -196z" />
    <glyph glyph-name="sterling" unicode="&#xa3;" horiz-adv-x="549" 
d="M465 -102h-529c1 0 115 177 148 340l5 25h-61l17 88h61l38 194c28 145 144 209 268 209c115 0 184 -64 184 -64l-51 -90s-61 61 -140 61c-59 0 -117 -32 -132 -108l-40 -202h196l-41 -88h-172l-6 -34c-19 -108 -96 -237 -94 -237h385z" />
    <glyph glyph-name="section" unicode="&#xa7;" horiz-adv-x="420" 
d="M339 658v-651c0 -118 -106 -186 -213 -186c-114 0 -151 76 -151 76l19 97c36 -53 74 -71 106 -76v668c0 107 106 169 212 169c114 0 152 -76 152 -76l-19 -97c-38 55 -75 71 -106 76zM195 586v-657s49 21 49 61v660s-49 -24 -49 -64z" />
    <glyph glyph-name="bullet" unicode="&#x2022;" horiz-adv-x="424" 
d="M211 399c84 0 153 -68 153 -152c0 -86 -69 -154 -153 -154c-86 0 -154 68 -154 154c0 84 68 152 154 152z" />
    <glyph glyph-name="paragraph" unicode="&#xb6;" horiz-adv-x="662" 
d="M47 315c0 186 180 353 377 353h75l-177 -912h-95l61 317c-141 10 -241 108 -241 242zM659 668l-177 -912h-95l177 912h95z" />
    <glyph glyph-name="germandbls" unicode="&#xdf;" horiz-adv-x="570" 
d="M450 620c0 37 -37 52 -70 52c-67 0 -118 -41 -126 -91l-94 -582c-23 -141 -105 -240 -239 -241l-23 93c72 0 125 59 141 152c21 141 44 268 65 409h-63l14 92h62l10 62c23 143 138 199 249 199c103 0 196 -41 196 -135c0 -111 -163 -179 -163 -243
c0 -67 133 -118 133 -221c0 -98 -89 -179 -219 -179c-70 0 -114 39 -114 39l31 91c1 -1 45 -38 92 -38c34 0 77 22 77 65c0 85 -119 119 -119 210c0 121 160 186 160 266z" />
    <glyph glyph-name="registered" unicode="&#xae;" horiz-adv-x="800" 
d="M584 156h-121l-89 131v-79c0 -3 1 -13 7 -52h-108v298l-7 64h124c73 0 142 -39 142 -118c0 -38 -28 -83 -70 -102zM374 335h4c31 0 64 21 64 65c0 43 -33 56 -64 56h-4v-121zM750 340c0 -215 -139 -353 -366 -353c-192 0 -334 145 -334 335c0 214 144 346 375 346
c190 0 325 -139 325 -328zM658 327c0 160 -106 265 -254 265c-142 0 -260 -96 -260 -258c0 -166 102 -269 262 -269c136 0 252 101 252 262z" />
    <glyph glyph-name="copyright" unicode="&#xa9;" horiz-adv-x="800" 
d="M540 473l-37 -72s-47 43 -96 43c-48 0 -83 -47 -83 -109c0 -59 34 -113 88 -113c55 0 115 49 115 49l10 -79s-54 -52 -150 -53c-109 -1 -165 91 -165 185c0 107 62 200 187 200c72 0 131 -51 131 -51zM750 340c0 -215 -139 -353 -366 -353c-192 0 -334 145 -334 335
c0 214 144 346 375 346c190 0 325 -139 325 -328zM658 327c0 160 -106 265 -254 265c-142 0 -260 -96 -260 -258c0 -166 102 -269 262 -269c136 0 252 101 252 262z" />
    <glyph glyph-name="trademark" unicode="&#x2122;" horiz-adv-x="812" 
d="M27 627v78h289v-78h-93v-241l7 -57h-114v298h-89zM570 341l-120 165v-120l7 -57h-108v311l-8 65h78l152 -214l136 214h77v-319l7 -57h-118v172z" />
    <glyph glyph-name="acute" unicode="&#xb4;" horiz-adv-x="338" 
d="M182 724h149l-200 -164l-76 28z" />
    <glyph glyph-name="dieresis" unicode="&#xa8;" horiz-adv-x="384" 
d="M158 637c0 -34 -26 -61 -56 -61s-56 27 -56 61s26 62 56 62s56 -28 56 -62zM342 637c0 -34 -26 -61 -56 -61c-31 0 -56 27 -56 61s25 62 56 62c30 0 56 -28 56 -62z" />
    <glyph glyph-name="notequal" unicode="&#x2260;" 
 />
    <glyph glyph-name="AE" unicode="&#xc6;" horiz-adv-x="787" 
d="M294 0l31 164h-172l-109 -164h-123l454 668h417l-19 -99h-239l-34 -177h211l-44 -99h-186l-38 -194h252l-44 -99h-357zM216 258h128l63 294z" />
    <glyph glyph-name="Oslash" unicode="&#xd8;" horiz-adv-x="659" 
d="M33 249c0 231 132 429 359 429c41 0 76 -7 105 -19l38 61l71 -18l-49 -78c65 -55 89 -139 89 -204c0 -255 -152 -433 -363 -433c-42 0 -79 8 -110 22l-45 -72l-62 23l51 83c-55 49 -84 123 -84 206zM513 401c0 44 -9 83 -24 113l-257 -411c18 -13 40 -19 64 -19
c125 0 217 169 217 317zM382 582c-91 0 -216 -105 -216 -321c0 -41 7 -77 21 -105l253 411c-17 9 -36 15 -58 15z" />
    <glyph glyph-name="infinity" unicode="&#x221e;" horiz-adv-x="619" 
 />
    <glyph glyph-name="plusminus" unicode="&#xb1;" horiz-adv-x="481" 
d="M186 160v114h-143v98h143v135l110 -30v-105h151l-25 -98h-126v-114h-110zM67 104h352l-28 -104h-324v104z" />
    <glyph glyph-name="lessequal" unicode="&#x2264;" horiz-adv-x="225" 
 />
    <glyph glyph-name="greaterequal" unicode="&#x2265;" horiz-adv-x="225" 
 />
    <glyph glyph-name="yen" unicode="&#xa5;" horiz-adv-x="535" 
d="M82 357h91l-71 224l-48 87h152l74 -228l6 -39l22 39l162 228h134l-234 -311h113l-34 -84h-126l-16 -79h134l-34 -84h-116l-5 -24l-5 -86h-141l21 110h-127l16 84h127l16 79h-127z" />
    <glyph glyph-name="mu" unicode="&#xb5;" horiz-adv-x="519" 
 />
    <glyph glyph-name="mu" unicode="&#x3bc;" horiz-adv-x="519" 
 />
    <glyph glyph-name="partialdiff" unicode="&#x2202;" horiz-adv-x="12" 
d="M12 694v-694h-12v694h12z" />
    <glyph glyph-name="summation" unicode="&#x2211;" horiz-adv-x="474" 
 />
    <glyph glyph-name="product" unicode="&#x220f;" horiz-adv-x="424" 
 />
    <glyph glyph-name="pi" unicode="&#x3c0;" horiz-adv-x="424" 
 />
    <glyph glyph-name="integral" unicode="&#x222b;" horiz-adv-x="330" 
 />
    <glyph glyph-name="ordfeminine" unicode="&#xaa;" horiz-adv-x="420" 
d="M261 411l38 199s-16 3 -28 3c-54 0 -114 -91 -114 -200c0 -27 8 -60 27 -60c41 0 77 58 77 58zM392 290l-101 -14c-20 14 -30 45 -31 59c0 0 -45 -58 -102 -58s-109 39 -109 125c0 140 87 276 217 276c20 0 89 -8 149 -11c-53 -276 -55 -290 -55 -302
c0 -30 10 -51 32 -75z" />
    <glyph glyph-name="ordmasculine" unicode="&#xba;" horiz-adv-x="457" 
d="M232 347c40 0 93 55 93 169c0 52 -19 93 -50 93c-54 0 -93 -89 -93 -168c0 -55 15 -94 50 -94zM294 678c77 0 139 -52 139 -151c0 -133 -80 -250 -216 -250c-114 0 -141 91 -141 151c0 148 87 250 218 250z" />
    <glyph glyph-name="Omega" unicode="&#x3a9;" horiz-adv-x="368" 
 />
    <glyph glyph-name="Omega" unicode="&#x2126;" horiz-adv-x="368" 
 />
    <glyph glyph-name="ae" unicode="&#xe6;" horiz-adv-x="747" 
d="M736 398c0 -135 -149 -178 -295 -183c0 -69 38 -123 100 -123c84 0 165 90 165 90l8 -118s-67 -77 -199 -77c-90 0 -147 43 -176 106c-41 -50 -104 -106 -179 -106c-71 0 -137 53 -137 166c0 185 113 367 281 367c39 0 98 -17 162 -17c40 0 78 16 120 16
c102 0 150 -52 150 -121zM192 86c49 0 114 77 126 92c-1 8 -1 19 -1 27c0 85 27 165 75 222l-36 4c-16 2 -37 4 -45 4c-76 0 -160 -121 -160 -267c0 -37 10 -82 41 -82zM450 293c50 6 158 12 158 95c0 30 -17 43 -37 43c-67 0 -104 -75 -121 -138z" />
    <glyph glyph-name="oslash" unicode="&#xf8;" horiz-adv-x="507" 
d="M495 579l-67 -108c33 -34 54 -85 54 -152c0 -176 -104 -332 -280 -332c-27 0 -50 4 -70 11l-76 -122l-62 23l83 134c-42 42 -54 106 -54 154c0 196 113 333 282 333c23 0 44 -4 64 -11l55 88zM145 205c0 -18 4 -43 7 -58l17 35l145 236c-10 8 -22 12 -34 12
c-76 0 -135 -120 -135 -225zM222 78c58 0 135 73 135 227c0 15 -4 38 -7 51l-19 -40l-143 -229c10 -6 21 -9 34 -9z" />
    <glyph glyph-name="questiondown" unicode="&#xbf;" horiz-adv-x="415" 
d="M274 473l98 -40s2 -5 2 -12c0 -107 -241 -243 -241 -343c0 -47 33 -72 78 -72s108 38 108 38l15 -114s-74 -32 -149 -32c-93 0 -182 43 -182 166c0 145 273 283 273 392c0 4 -1 13 -2 17zM255 597c0 41 31 74 75 74s75 -33 75 -74c0 -38 -31 -75 -75 -75s-75 37 -75 75z
" />
    <glyph glyph-name="exclamdown" unicode="&#xa1;" horiz-adv-x="264" 
d="M-13 -111l140 575l89 -11l-66 -451l-4 -93zM122 594c0 41 31 74 75 74s75 -33 75 -74c0 -38 -31 -75 -75 -75s-75 37 -75 75z" />
    <glyph glyph-name="logicalnot" unicode="&#xac;" horiz-adv-x="535" 
 />
    <glyph glyph-name="radical" unicode="&#x221a;" horiz-adv-x="225" 
 />
    <glyph glyph-name="florin" unicode="&#x192;" horiz-adv-x="483" 
d="M455 505l-45 -85h-97l-60 -432c-19 -137 -110 -230 -237 -231l-30 85c80 0 135 52 147 147l56 431h-72l17 85h65l7 58c21 141 115 191 200 191c41 0 74 -7 114 -32l-46 -94s-24 24 -74 24c-26 0 -58 -24 -66 -74l-11 -73h132z" />
    <glyph glyph-name="approxequal" unicode="&#x2248;" horiz-adv-x="669" 
 />
    <glyph glyph-name="Delta" unicode="&#x394;" horiz-adv-x="669" 
 />
    <glyph glyph-name="Delta" unicode="&#x2206;" horiz-adv-x="669" 
 />
    <glyph glyph-name="guillemotleft" unicode="&#xab;" horiz-adv-x="660" 
d="M371 400l-193 -155l129 -151l-72 -90l-210 244l307 244zM640 400l-193 -155l129 -151l-72 -90l-210 244l307 244z" />
    <glyph glyph-name="guillemotright" unicode="&#xbb;" horiz-adv-x="660" 
d="M289 96l193 155l-129 151l72 90l210 -244l-307 -244zM20 96l193 155l-129 151l72 90l210 -244l-307 -244z" />
    <glyph glyph-name="ellipsis" unicode="&#x2026;" horiz-adv-x="733" 
d="M197 51c0 -36 -28 -64 -62 -64c-36 0 -64 28 -64 64c0 34 28 62 64 62c34 0 62 -28 62 -62zM432 51c0 -36 -28 -64 -62 -64c-35 0 -64 28 -64 64c0 34 29 62 64 62c34 0 62 -28 62 -62zM663 51c0 -36 -28 -64 -63 -64s-63 28 -63 64c0 34 28 62 63 62s63 -28 63 -62z" />
    <glyph glyph-name="Agrave" unicode="&#xc0;" horiz-adv-x="552" 
d="M-83 0l379 660l99 20l96 -555l32 -125h-142l-26 155h-225l-89 -155h-124zM293 452l-106 -194h153l-29 194l-1 39zM174 875h149l103 -136l-82 -28z" />
    <glyph glyph-name="Atilde" unicode="&#xc3;" horiz-adv-x="552" 
d="M-83 0l379 660l99 20l96 -555l32 -125h-142l-26 155h-225l-89 -155h-124zM293 452l-106 -194h153l-29 194l-1 39zM457 831l54 -39s-20 -71 -111 -71c-61 0 -93 34 -121 34c-45 0 -66 -34 -66 -34l-52 37s28 73 114 73c52 0 86 -35 117 -35c16 0 49 2 65 35z" />
    <glyph glyph-name="Otilde" unicode="&#xd5;" horiz-adv-x="659" 
d="M382 582c-91 0 -216 -105 -216 -321c0 -107 52 -177 130 -177c125 0 217 169 217 317c0 106 -47 181 -131 181zM33 249c0 231 132 429 359 429c194 0 254 -154 254 -258c0 -255 -152 -433 -363 -433c-164 0 -250 119 -250 262zM512 831l54 -39s-20 -71 -111 -71
c-61 0 -93 34 -121 34c-45 0 -66 -34 -66 -34l-52 37s28 73 114 73c52 0 86 -35 117 -35c16 0 49 2 65 35z" />
    <glyph glyph-name="OE" unicode="&#x152;" horiz-adv-x="829" 
d="M285 0c-164 0 -250 112 -250 255c0 231 142 413 369 413h430l-17 -99h-216l-36 -177h202l-37 -99h-184l-36 -194h242l-39 -99h-428zM168 267c0 -107 51 -175 129 -175h80l90 454l1 31h-72c-91 0 -228 -94 -228 -310z" />
    <glyph glyph-name="oe" unicode="&#x153;" horiz-adv-x="770" 
d="M759 398c0 -135 -149 -178 -295 -183c0 -69 38 -123 100 -123c84 0 165 90 165 90l8 -118s-67 -77 -199 -77c-102 0 -152 82 -152 82s-70 -82 -184 -82c-145 0 -179 120 -179 200c0 196 113 333 282 333c105 0 137 -75 137 -75s52 74 167 74c102 0 150 -52 150 -121z
M222 78c58 0 132 73 132 227c0 71 -28 125 -74 125c-76 0 -132 -120 -132 -225c0 -75 23 -127 74 -127zM473 293c50 6 158 12 158 95c0 30 -17 43 -37 43c-67 0 -104 -75 -121 -138z" />
    <glyph glyph-name="endash" unicode="&#x2013;" horiz-adv-x="462" 
d="M36 299h403l-28 -104h-375v104z" />
    <glyph glyph-name="emdash" unicode="&#x2014;" horiz-adv-x="689" 
d="M36 299h628l-28 -104h-600v104z" />
    <glyph glyph-name="quotedblleft" unicode="&#x201c;" horiz-adv-x="427" 
d="M235 684l28 -43c-46 -32 -74 -79 -74 -108c0 -28 10 -37 29 -46v-7c0 -29 -27 -68 -67 -68c-37 0 -71 25 -71 77c0 48 43 126 155 195zM412 684l28 -43c-46 -32 -74 -79 -74 -108c0 -28 10 -37 29 -46v-7c0 -29 -27 -68 -67 -68c-37 0 -71 25 -71 77c0 48 43 126 155 195
z" />
    <glyph glyph-name="quotedblright" unicode="&#x201d;" horiz-adv-x="425" 
d="M105 412l-28 43c46 32 74 79 74 108c0 28 -10 37 -29 46v7c0 29 27 68 67 68c37 0 71 -25 71 -77c0 -48 -43 -126 -155 -195zM280 412l-28 43c46 32 74 79 74 108c0 28 -10 37 -29 46v7c0 29 27 68 67 68c37 0 71 -25 71 -77c0 -48 -43 -126 -155 -195z" />
    <glyph glyph-name="quoteleft" unicode="&#x2018;" horiz-adv-x="250" 
d="M235 684l28 -43c-46 -32 -74 -79 -74 -108c0 -28 10 -37 29 -46v-7c0 -29 -27 -68 -67 -68c-37 0 -71 25 -71 77c0 48 43 126 155 195z" />
    <glyph glyph-name="quoteright" unicode="&#x2019;" horiz-adv-x="250" 
d="M105 412l-28 43c46 32 74 79 74 108c0 28 -10 37 -29 46v7c0 29 27 68 67 68c37 0 71 -25 71 -77c0 -48 -43 -126 -155 -195z" />
    <glyph glyph-name="divide" unicode="&#xf7;" horiz-adv-x="483" 
d="M167 411c0 39 32 70 70 70c36 0 67 -31 67 -70c0 -37 -31 -67 -67 -67c-38 0 -70 30 -70 67zM167 83c0 39 32 70 70 70c36 0 67 -31 67 -70c0 -37 -31 -67 -67 -67c-38 0 -70 30 -70 67zM67 297h352l-28 -99h-324v99z" />
    <glyph glyph-name="lozenge" unicode="&#x25ca;" horiz-adv-x="476" 
 />
    <glyph glyph-name="ydieresis" unicode="&#xff;" horiz-adv-x="486" 
d="M121 37l-56 370l-31 94l139 19l45 -305l3 -85l42 85l78 128c16 26 23 50 23 75c0 37 -27 83 -27 83l131 19s23 -45 23 -87c0 -40 -16 -82 -49 -134l-251 -399c-64 -101 -155 -143 -230 -143c-21 0 -66 12 -66 12l-6 110s39 -15 73 -15c40 0 83 19 126 81l45 64zM254 636
c0 -34 -26 -61 -56 -61s-56 27 -56 61s26 62 56 62s56 -28 56 -62zM438 636c0 -34 -26 -61 -56 -61c-31 0 -56 27 -56 61s25 62 56 62c30 0 56 -28 56 -62z" />
    <glyph glyph-name="Ydieresis" unicode="&#x178;" horiz-adv-x="535" 
d="M325 291l-40 -206l-4 -85h-143l57 290l-96 291l-47 87h151l75 -222l8 -42l28 49l151 215h135zM250 788c0 -34 -26 -61 -56 -61s-56 27 -56 61s26 62 56 62s56 -28 56 -62zM434 788c0 -34 -26 -61 -56 -61c-31 0 -56 27 -56 61s25 62 56 62c30 0 56 -28 56 -62z" />
    <glyph glyph-name="fraction" unicode="&#x2044;" horiz-adv-x="544" 
d="M565 639l-442 -639h-127l467 679z" />
    <glyph glyph-name="Euro" unicode="&#x20ac;" horiz-adv-x="601" 
d="M12 361l17 89h69c62 131 183 228 356 228c102 0 180 -51 180 -51l-54 -99s-49 51 -153 51c-95 0 -164 -55 -208 -129h319l-49 -89h-307c-7 -24 -12 -49 -15 -73h290l-50 -89h-240c11 -67 59 -112 161 -112c48 0 123 21 198 74l-23 -116c-70 -40 -146 -58 -213 -58
c-137 0 -228 75 -239 212h-70l18 89h54c3 24 7 49 13 73h-54z" />
    <glyph glyph-name="guilsinglleft" unicode="&#x2039;" horiz-adv-x="391" 
d="M371 400l-193 -155l129 -151l-72 -90l-210 244l307 244z" />
    <glyph glyph-name="guilsinglright" unicode="&#x203a;" horiz-adv-x="391" 
d="M20 96l193 155l-129 151l72 90l210 -244l-307 -244z" />
    <glyph glyph-name="daggerdbl" unicode="&#x2021;" horiz-adv-x="487" 
d="M197 -244h-123l48 244h-128l17 93h129l62 319h-129l18 93h129l28 143l126 15l-31 -158h159l-49 -93h-128l-62 -319h146l-49 -93h-115z" />
    <glyph glyph-name="periodcentered" unicode="&#xb7;" horiz-adv-x="258" 
d="M201 245c0 -41 -31 -74 -75 -74s-75 33 -75 74c0 38 31 75 75 75s75 -37 75 -75z" />
    <glyph glyph-name="quotesinglbase" unicode="&#x201a;" horiz-adv-x="250" 
d="M20 -138l-28 43c46 32 74 79 74 108c0 28 -10 37 -29 46v7c0 29 27 68 67 68c37 0 71 -25 71 -77c0 -48 -43 -126 -155 -195z" />
    <glyph glyph-name="quotedblbase" unicode="&#x201e;" horiz-adv-x="425" 
d="M20 -138l-28 43c46 32 74 79 74 108c0 28 -10 37 -29 46v7c0 29 27 68 67 68c37 0 71 -25 71 -77c0 -48 -43 -126 -155 -195zM195 -138l-28 43c46 32 74 79 74 108c0 28 -10 37 -29 46v7c0 29 27 68 67 68c37 0 71 -25 71 -77c0 -48 -43 -126 -155 -195z" />
    <glyph glyph-name="perthousand" unicode="&#x2030;" horiz-adv-x="1234" 
d="M387 507c0 -89 -78 -163 -166 -163c-86 0 -163 74 -163 163s77 163 163 163c88 0 166 -74 166 -163zM299 508c0 41 -38 75 -77 75c-41 0 -76 -34 -76 -75c0 -38 32 -80 76 -80c49 0 77 42 77 80zM802 150c0 -89 -78 -163 -166 -163c-86 0 -163 74 -163 163
s77 163 163 163c88 0 166 -74 166 -163zM714 151c0 41 -38 75 -77 75c-41 0 -76 -34 -76 -75c0 -38 32 -80 76 -80c49 0 77 42 77 80zM1176 150c0 -89 -78 -163 -166 -163c-86 0 -163 74 -163 163s77 163 163 163c88 0 166 -74 166 -163zM1088 151c0 41 -38 75 -77 75
c-41 0 -76 -34 -76 -75c0 -38 32 -80 76 -80c49 0 77 42 77 80zM772 647l-569 -647h-127l601 688z" />
    <glyph glyph-name="Acircumflex" unicode="&#xc2;" horiz-adv-x="552" 
d="M-83 0l379 660l99 20l96 -555l32 -125h-142l-26 155h-225l-89 -155h-124zM293 452l-106 -194h153l-29 194l-1 39zM294 875h102l102 -133l-81 -30l-79 93l-95 -93l-75 30z" />
    <glyph glyph-name="Ecircumflex" unicode="&#xca;" horiz-adv-x="505" 
d="M35 0l110 566l4 102h361l-17 -99h-216l-36 -177h202l-37 -99h-184l-36 -194h242l-39 -99h-354zM265 875h102l102 -133l-81 -30l-79 93l-95 -93l-75 30z" />
    <glyph glyph-name="Aacute" unicode="&#xc1;" horiz-adv-x="552" 
d="M-83 0l379 660l99 20l96 -555l32 -125h-142l-26 155h-225l-89 -155h-124zM293 452l-106 -194h153l-29 194l-1 39zM378 875h149l-200 -164l-76 28z" />
    <glyph glyph-name="Edieresis" unicode="&#xcb;" horiz-adv-x="505" 
d="M35 0l110 566l4 102h361l-17 -99h-216l-36 -177h202l-37 -99h-184l-36 -194h242l-39 -99h-354zM273 788c0 -34 -26 -61 -56 -61s-56 27 -56 61s26 62 56 62s56 -28 56 -62zM457 788c0 -34 -26 -61 -56 -61c-31 0 -56 27 -56 61s25 62 56 62c30 0 56 -28 56 -62z" />
    <glyph glyph-name="Egrave" unicode="&#xc8;" horiz-adv-x="505" 
d="M35 0l110 566l4 102h361l-17 -99h-216l-36 -177h202l-37 -99h-184l-36 -194h242l-39 -99h-354zM145 875h149l103 -136l-82 -28z" />
    <glyph glyph-name="Iacute" unicode="&#xcd;" horiz-adv-x="309" 
d="M296 668l-114 -583l-4 -85h-143l111 568l4 100h146zM255 875h149l-200 -164l-76 28z" />
    <glyph glyph-name="Icircumflex" unicode="&#xce;" horiz-adv-x="309" 
d="M296 668l-114 -583l-4 -85h-143l111 568l4 100h146zM171 875h102l102 -133l-81 -30l-79 93l-95 -93l-75 30z" />
    <glyph glyph-name="Idieresis" unicode="&#xcf;" horiz-adv-x="309" 
d="M296 668l-114 -583l-4 -85h-143l111 568l4 100h146zM179 788c0 -34 -26 -61 -56 -61s-56 27 -56 61s26 62 56 62s56 -28 56 -62zM363 788c0 -34 -26 -61 -56 -61c-31 0 -56 27 -56 61s25 62 56 62c30 0 56 -28 56 -62z" />
    <glyph glyph-name="Igrave" unicode="&#xcc;" horiz-adv-x="309" 
d="M296 668l-114 -583l-4 -85h-143l111 568l4 100h146zM51 875h149l103 -136l-82 -28z" />
    <glyph glyph-name="Oacute" unicode="&#xd3;" horiz-adv-x="659" 
d="M382 582c-91 0 -216 -105 -216 -321c0 -107 52 -177 130 -177c125 0 217 169 217 317c0 106 -47 181 -131 181zM33 249c0 231 132 429 359 429c194 0 254 -154 254 -258c0 -255 -152 -433 -363 -433c-164 0 -250 119 -250 262zM433 875h149l-200 -164l-76 28z" />
    <glyph glyph-name="Ocircumflex" unicode="&#xd4;" horiz-adv-x="659" 
d="M382 582c-91 0 -216 -105 -216 -321c0 -107 52 -177 130 -177c125 0 217 169 217 317c0 106 -47 181 -131 181zM33 249c0 231 132 429 359 429c194 0 254 -154 254 -258c0 -255 -152 -433 -363 -433c-164 0 -250 119 -250 262zM349 875h102l102 -133l-81 -30l-79 93
l-95 -93l-75 30z" />
    <glyph glyph-name="apple" horiz-adv-x="1019" 
d="M984 418v-252l-112 -66v-138l-241 -128l-120 64l-122 -64l-241 128v138l-113 66v252l113 65v137l241 129l122 -65l120 65l241 -129v-137zM938 178v227l-102 59v124l-218 115l-107 -59l-110 59l-217 -115v-124l-103 -59v-227l103 -58v-125l217 -116l110 60l107 -60
l218 116v125zM895 393v-203l-92 -54v-111l-195 -104l-97 53l-100 -53l-194 104v111l-91 54v203l91 54v111l194 104l100 -54l97 54l195 -104v-111zM368 530l13 -92v-386h107l-17 58v151h169l20 74h-189v121h219v74h-322z" />
    <glyph glyph-name="Ograve" unicode="&#xd2;" horiz-adv-x="659" 
d="M382 582c-91 0 -216 -105 -216 -321c0 -107 52 -177 130 -177c125 0 217 169 217 317c0 106 -47 181 -131 181zM33 249c0 231 132 429 359 429c194 0 254 -154 254 -258c0 -255 -152 -433 -363 -433c-164 0 -250 119 -250 262zM229 875h149l103 -136l-82 -28z" />
    <glyph glyph-name="Uacute" unicode="&#xda;" horiz-adv-x="676" 
d="M550 668h131l-78 -402c-32 -164 -136 -279 -298 -279c-238 0 -253 165 -224 323l46 256l5 102h147l-67 -365c-15 -82 -29 -219 99 -219c87 0 157 81 175 175l59 307zM436 875h149l-200 -164l-76 28z" />
    <glyph glyph-name="Ucircumflex" unicode="&#xdb;" horiz-adv-x="676" 
d="M550 668h131l-78 -402c-32 -164 -136 -279 -298 -279c-238 0 -253 165 -224 323l46 256l5 102h147l-67 -365c-15 -82 -29 -219 99 -219c87 0 157 81 175 175l59 307zM352 875h102l102 -133l-81 -30l-79 93l-95 -93l-75 30z" />
    <glyph glyph-name="Ugrave" unicode="&#xd9;" horiz-adv-x="676" 
d="M550 668h131l-78 -402c-32 -164 -136 -279 -298 -279c-238 0 -253 165 -224 323l46 256l5 102h147l-67 -365c-15 -82 -29 -219 99 -219c87 0 157 81 175 175l59 307zM232 875h149l103 -136l-82 -28z" />
    <glyph glyph-name="dotlessi" unicode="&#x131;" horiz-adv-x="282" 
d="M252 520l-85 -434l-5 -86h-135l78 404l6 101z" />
    <glyph glyph-name="circumflex" unicode="&#x2c6;" horiz-adv-x="402" 
d="M156 724h102l102 -133l-81 -30l-79 93l-95 -93l-75 30z" />
    <glyph glyph-name="tilde" unicode="&#x2dc;" horiz-adv-x="380" 
d="M316 680l54 -39s-20 -71 -111 -71c-61 0 -93 34 -121 34c-45 0 -66 -34 -66 -34l-52 37s28 73 114 73c52 0 86 -35 117 -35c16 0 49 2 65 35z" />
    <glyph glyph-name="macron" unicode="&#xaf;" horiz-adv-x="335" 
d="M42 665h274l-35 -98h-248z" />
    <glyph glyph-name="breve" unicode="&#x2d8;" horiz-adv-x="402" 
d="M198 636c46 0 93 96 93 96l82 -29s-58 -157 -183 -157s-155 157 -155 157l88 29s29 -96 75 -96z" />
    <glyph glyph-name="dotaccent" unicode="&#x2d9;" horiz-adv-x="186" 
d="M165 638c0 -36 -31 -65 -69 -65c-39 0 -70 29 -70 65c0 35 31 64 70 64c38 0 69 -29 69 -64z" />
    <glyph glyph-name="ring" unicode="&#x2da;" horiz-adv-x="520" 
d="M346 650c0 -48 -43 -88 -91 -88c-47 0 -89 40 -89 88s42 88 89 88c48 0 91 -40 91 -88zM299 651c0 23 -21 43 -43 43c-24 0 -43 -20 -43 -43c0 -22 18 -47 43 -47c28 0 43 25 43 47z" />
    <glyph glyph-name="cedilla" unicode="&#xb8;" horiz-adv-x="402" 
d="M130 -49l17 52h61c28 -40 107 -65 107 -122c0 -84 -77 -116 -145 -116c-39 0 -80 14 -113 39l36 69c21 -24 61 -31 82 -31c20 0 39 7 39 27c0 30 -66 49 -84 82z" />
    <glyph glyph-name="hungarumlaut" unicode="&#x2dd;" horiz-adv-x="585" 
d="M171 724h149l-200 -164l-76 28zM375 724h149l-200 -164l-76 28z" />
    <glyph glyph-name="ogonek" unicode="&#x2db;" horiz-adv-x="276" 
d="M143 15h98c-8 -7 -108 -94 -108 -137c0 -14 11 -23 39 -23h48l-7 -84c-13 -3 -29 -4 -46 -4c-60 0 -133 18 -133 79c0 57 59 129 109 169z" />
    <glyph glyph-name="caron" unicode="&#x2c7;" horiz-adv-x="402" 
d="M243 561h-102l-102 133l81 30l79 -93l95 93l75 -30z" />
    <glyph glyph-name="DLE" horiz-adv-x="0" 
 />
    <glyph glyph-name=".null" horiz-adv-x="0" 
 />
    <glyph glyph-name="CR" horiz-adv-x="250" 
 />
    <glyph glyph-name="one.t" 
d="M51 0l17 96h95l63 356l-107 -32l-8 99l268 86l-92 -509h120l-25 -96h-331z" />
    </font>
</defs>
</svg>
